<svg width="64" height="64" viewBox="0 0 64 64" fill="none" xmlns="http://www.w3.org/2000/svg">
<path d="M58.623 11.771H5.377C5.16879 11.771 5 11.9398 5 12.148V51.853C5 52.0612 5.16879 52.23 5.377 52.23H58.623C58.8312 52.23 59 52.0612 59 51.853V12.148C59 11.9398 58.8312 11.771 58.623 11.771Z" fill="white"/>
<path d="M58 12.77V51.23H6V12.77H58ZM58.623 10.77H5.377C5.01195 10.7711 4.66217 10.9166 4.40413 11.1749C4.14609 11.4331 4.00079 11.783 4 12.148V51.848C3.99973 52.2138 4.14457 52.5647 4.40272 52.8238C4.66087 53.0829 5.01126 53.229 5.377 53.23H58.623C58.9881 53.229 59.3378 53.0834 59.5959 52.8252C59.8539 52.567 59.9992 52.2171 60 51.852V12.152C59.9989 11.7871 59.8535 11.4375 59.5955 11.1795C59.3375 10.9215 58.9879 10.7761 58.623 10.775V10.77Z" fill="#298EEA"/>
<path d="M5 20.5H59" stroke="#298EEA" stroke-miterlimit="10"/>
<path d="M17.5 21V53" stroke="#298EEA" stroke-miterlimit="10"/>
<path d="M14.8811 23.9102H7.99609V25.2872H14.8811V23.9102Z" fill="#D4E8FB"/>
<path d="M14.8811 27.6899H7.99609V29.0669H14.8811V27.6899Z" fill="#D4E8FB"/>
<path d="M14.8811 31.4692H7.99609V32.8462H14.8811V31.4692Z" fill="#D4E8FB"/>
<path d="M14.8811 35.249H7.99609V36.626H14.8811V35.249Z" fill="#D4E8FB"/>
<path d="M14.8811 39.0288H7.99609V40.4058H14.8811V39.0288Z" fill="#D4E8FB"/>
<path d="M14.8811 42.8081H7.99609V44.1851H14.8811V42.8081Z" fill="#D4E8FB"/>
<path d="M14.8811 46.5879H7.99609V47.9649H14.8811V46.5879Z" fill="#D4E8FB"/>
<path d="M36.2281 31.8081L35.4891 34.3341L35.4361 34.5161C35.3478 34.752 35.1923 34.9568 34.9888 35.1053C34.7853 35.2537 34.5427 35.3392 34.2911 35.3511H32.1001C31.5718 35.3511 31.0651 35.561 30.6916 35.9346C30.318 36.3081 30.1081 36.8148 30.1081 37.3431C30.1081 37.8714 30.318 38.3781 30.6916 38.7517C31.0651 39.1253 31.5718 39.3351 32.1001 39.3351H33.4711C33.6075 39.3591 33.7311 39.4304 33.8202 39.5365C33.9093 39.6426 33.9581 39.7766 33.9581 39.9151C33.9582 39.9647 33.9522 40.0141 33.9401 40.0621L33.1931 42.8781H32.0931C30.625 42.8781 29.217 42.2949 28.1789 41.2568C27.1408 40.2187 26.5576 38.8107 26.5576 37.3426C26.5576 35.8745 27.1408 34.4665 28.1789 33.4284C29.217 32.3903 30.625 31.8071 32.0931 31.8071L36.2281 31.8081Z" fill="#D4E8FB"/>
<path d="M48.2249 33.7591C48.2259 35.2258 47.6445 36.6329 46.6085 37.671C45.5724 38.7091 44.1665 39.2933 42.6999 39.2951H39.2109L39.9499 36.7691L39.9999 36.5861C40.0882 36.3503 40.2437 36.1454 40.4472 35.997C40.6507 35.8486 40.8933 35.7631 41.1449 35.7511H42.6899C43.2182 35.7511 43.7248 35.5413 44.0984 35.1677C44.472 34.7941 44.6819 34.2875 44.6819 33.7591C44.6819 33.2308 44.472 32.7242 44.0984 32.3506C43.7248 31.977 43.2182 31.7671 42.6899 31.7671H40.5509L37.8739 41.9001L37.8329 42.0551C37.7622 42.2649 37.6363 42.4518 37.4684 42.5961C37.3005 42.7404 37.0969 42.8368 36.8789 42.8751C36.8086 42.8879 36.7373 42.8943 36.6659 42.8941H33.9849L37.4719 29.2941L37.5219 29.1011C37.6098 28.845 37.7754 28.6228 37.9958 28.4653C38.2161 28.3079 38.4801 28.2233 38.7509 28.2231H42.6999C44.1665 28.225 45.5724 28.8092 46.6085 29.8473C47.6445 30.8854 48.2259 32.2925 48.2249 33.7591Z" fill="#D4E8FB"/>
</svg>
