<svg width="64" height="64" viewBox="0 0 64 64" fill="none" xmlns="http://www.w3.org/2000/svg">
<path d="M50.875 41.8398V51.8398C50.875 53.6308 42.424 55.0818 32 55.0818C21.576 55.0818 13.125 53.6308 13.125 51.8398V41.8838" fill="white"/>
<path d="M50.875 41.8398V51.8398C50.875 53.6308 42.424 55.0818 32 55.0818C21.576 55.0818 13.125 53.6308 13.125 51.8398V41.8838" stroke="#298EEA" stroke-width="2" stroke-miterlimit="10"/>
<path d="M50.875 32.21V42.21C50.875 44.001 42.424 45.452 32 45.452C21.576 45.452 13.125 44 13.125 42.21V32.254" fill="white"/>
<path d="M50.875 32.21V42.21C50.875 44.001 42.424 45.452 32 45.452C21.576 45.452 13.125 44 13.125 42.21V32.254" stroke="#298EEA" stroke-width="2" stroke-miterlimit="10"/>
<path d="M50.875 22.1621V32.1621C50.875 33.9531 42.424 35.4041 32 35.4041C21.576 35.4041 13.125 33.9521 13.125 32.1621V22.2061" fill="white"/>
<path d="M50.875 22.1621V32.1621C50.875 33.9531 42.424 35.4041 32 35.4041C21.576 35.4041 13.125 33.9521 13.125 32.1621V22.2061" stroke="#298EEA" stroke-width="2" stroke-miterlimit="10"/>
<path d="M50.875 12.1602V22.1602C50.875 23.9502 42.424 25.4002 32 25.4002C21.576 25.4002 13.125 23.9502 13.125 22.1602V12.2002" fill="white"/>
<path d="M50.875 12.1602V22.1602C50.875 23.9502 42.424 25.4002 32 25.4002C21.576 25.4002 13.125 23.9502 13.125 22.1602V12.2002" stroke="#298EEA" stroke-width="2" stroke-miterlimit="10"/>
<path d="M32 15.402C42.4244 15.402 50.875 13.9505 50.875 12.16C50.875 10.3695 42.4244 8.91797 32 8.91797C21.5756 8.91797 13.125 10.3695 13.125 12.16C13.125 13.9505 21.5756 15.402 32 15.402Z" fill="white" stroke="#298EEA" stroke-width="2" stroke-miterlimit="10"/>
<path d="M32.0002 60.9677C29.2376 60.9677 26.5371 60.1485 24.24 58.6137C21.943 57.0789 20.1527 54.8974 19.0955 52.3451C18.0383 49.7927 17.7617 46.9843 18.3006 44.2747C18.8396 41.5652 20.1699 39.0763 22.1234 37.1229C24.0768 35.1694 26.5657 33.8391 29.2752 33.3001C31.9847 32.7612 34.7932 33.0378 37.3456 34.095C39.8979 35.1522 42.0794 36.9425 43.6142 39.2395C45.149 41.5366 45.9682 44.2371 45.9682 46.9997C45.9643 50.7031 44.4914 54.2536 41.8727 56.8722C39.2541 59.4909 35.7036 60.9638 32.0002 60.9677Z" fill="#D4E8FB"/>
<path d="M32.0002 34.0317C34.5651 34.0317 37.0723 34.7923 39.2049 36.2172C41.3374 37.6422 42.9996 39.6675 43.9811 42.0371C44.9626 44.4067 45.2194 47.0141 44.7191 49.5297C44.2187 52.0452 42.9836 54.3559 41.17 56.1695C39.3564 57.9831 37.0457 59.2182 34.5302 59.7186C32.0146 60.2189 29.4072 59.9621 27.0376 58.9806C24.668 57.9991 22.6427 56.3369 21.2177 54.2044C19.7928 52.0718 19.0322 49.5646 19.0322 46.9997C19.0362 43.5616 20.4037 40.2655 22.8349 37.8344C25.266 35.4033 28.5621 34.0357 32.0002 34.0317ZM32.0002 32.0317C29.0398 32.0317 26.1459 32.9096 23.6845 34.5543C21.223 36.199 19.3045 38.5367 18.1716 41.2717C17.0387 44.0068 16.7423 47.0163 17.3198 49.9198C17.8974 52.8234 19.3229 55.4904 21.4163 57.5837C23.5096 59.677 26.1766 61.1026 29.0801 61.6801C31.9836 62.2577 34.9932 61.9613 37.7282 60.8284C40.4633 59.6955 42.801 57.777 44.4457 55.3155C46.0904 52.854 46.9682 49.9601 46.9682 46.9997C46.9682 45.0341 46.5811 43.0877 45.8289 41.2717C45.0766 39.4557 43.9741 37.8057 42.5842 36.4158C41.1943 35.0259 39.5442 33.9233 37.7282 33.1711C35.9122 32.4189 33.9659 32.0317 32.0002 32.0317Z" fill="#298EEA"/>
<path d="M36.9632 41.3508C33.7902 41.3508 31.1872 44.9998 31.0632 46.9998C30.9132 49.9998 29.1632 50.7638 27.0322 50.7638C26.3267 50.7653 25.633 50.5821 25.0203 50.2322C24.4076 49.8823 23.8973 49.378 23.5401 48.7696C23.1829 48.1611 22.9913 47.4697 22.9844 46.7642C22.9776 46.0587 23.1556 45.3636 23.5009 44.7483C23.8461 44.133 24.3465 43.6189 24.9523 43.2571C25.558 42.8954 26.248 42.6986 26.9534 42.6864C27.6589 42.6742 28.3552 42.847 28.9731 43.1876C29.591 43.5282 30.1089 44.0248 30.4752 44.6278C30.6874 43.967 31.0022 43.3437 31.4082 42.7808C30.8585 42.1637 30.1843 41.6701 29.4301 41.3325C28.6758 40.9948 27.8586 40.8208 27.0322 40.8218C25.4632 40.8218 23.9584 41.4451 22.849 42.5545C21.7395 43.664 21.1162 45.1688 21.1162 46.7378C21.1162 48.3068 21.7395 49.8116 22.849 50.921C23.9584 52.0305 25.4632 52.6538 27.0322 52.6538C28.5484 52.6315 29.9998 52.0361 31.0948 50.9871C32.1897 49.9382 32.8469 48.5136 32.9342 46.9998C33.0252 45.9868 33.4869 45.0431 34.2308 44.3496C34.9747 43.6561 35.9484 43.2616 36.9652 43.2418C37.671 43.2401 38.365 43.4234 38.978 43.7733C39.591 44.1232 40.1016 44.6275 40.4591 45.2362C40.8166 45.8448 41.0084 46.5364 41.0155 47.2422C41.0226 47.948 40.8447 48.6433 40.4995 49.259C40.1543 49.8747 39.6539 50.3892 39.0481 50.7513C38.4422 51.1135 37.7521 51.3106 37.0464 51.3231C36.3407 51.3357 35.644 51.1631 35.0257 50.8227C34.4074 50.4823 33.889 49.9858 33.5222 49.3828C33.31 50.0436 32.9951 50.6669 32.5892 51.2298C33.1389 51.8468 33.8131 52.3404 34.5673 52.6781C35.3216 53.0157 36.1388 53.1898 36.9652 53.1888C38.535 53.1888 40.0405 52.5652 41.1506 51.4551C42.2606 50.3451 42.8842 48.8396 42.8842 47.2698C42.8842 45.7 42.2606 44.1944 41.1506 43.0844C40.0405 41.9744 38.535 41.3508 36.9652 41.3508H36.9632Z" fill="#298EEA"/>
</svg>
