<svg width="64" height="64" viewBox="0 0 64 64" fill="none" xmlns="http://www.w3.org/2000/svg">
<path d="M31.9999 6.7002L9.92285 14.5372C9.92285 14.5372 10.2619 29.4372 13.9899 39.3372C19.0699 52.8322 31.9999 57.3002 31.9999 57.3002C31.9999 57.3002 44.9299 52.8302 50.0109 39.3362C53.7399 29.4362 54.0779 14.5362 54.0779 14.5362L31.9999 6.7002Z" stroke="#288EEA" stroke-width="2" stroke-miterlimit="10"/>
<path d="M31.6077 9.90039V32.2774H15.1547C14.0293 27.0677 13.375 21.7673 13.1997 16.4404L31.6077 9.90039Z" fill="#D4E8FB"/>
<path d="M33.3157 33.2773H33.1577V33.4353H33.3157V33.2773Z" fill="#288EEA"/>
<path d="M48.5729 33.4341C48.2066 35.0243 47.7389 36.5895 47.1729 38.1201C43.2409 48.5681 33.6589 52.5271 32.3159 53.0381V33.4381L48.5729 33.4341Z" fill="#D4E8FB"/>
<path d="M33.3157 33.2773H33.1577V33.4353H33.3157V33.2773Z" fill="#272525"/>
<path d="M33.3157 33.2773H33.1577V33.4353H33.3157V33.2773Z" fill="#272525"/>
<path d="M32 45.3823C39.801 45.3823 46.125 39.0583 46.125 31.2573C46.125 23.4563 39.801 17.1323 32 17.1323C24.199 17.1323 17.875 23.4563 17.875 31.2573C17.875 39.0583 24.199 45.3823 32 45.3823Z" fill="#D4E8FB" stroke="#298EEA" stroke-miterlimit="10" stroke-linecap="round"/>
<path d="M31.9999 20.5103C34.1255 20.5103 36.2033 21.1406 37.9706 22.3214C39.738 23.5023 41.1154 25.1808 41.9289 27.1446C42.7423 29.1083 42.9551 31.2692 42.5404 33.3539C42.1258 35.4386 41.1022 37.3535 39.5992 38.8565C38.0962 40.3595 36.1813 41.3831 34.0966 41.7978C32.0118 42.2124 29.851 41.9996 27.8872 41.1862C25.9235 40.3728 24.245 38.9953 23.0641 37.228C21.8832 35.4606 21.2529 33.3828 21.2529 31.2573" fill="white"/>
<path d="M31.9999 20.5103C34.1255 20.5103 36.2033 21.1406 37.9706 22.3214C39.738 23.5023 41.1154 25.1808 41.9289 27.1446C42.7423 29.1083 42.9551 31.2692 42.5404 33.3539C42.1258 35.4386 41.1022 37.3535 39.5992 38.8565C38.0962 40.3595 36.1813 41.3831 34.0966 41.7978C32.0118 42.2124 29.851 41.9996 27.8872 41.1862C25.9235 40.3728 24.245 38.9953 23.0641 37.228C21.8832 35.4606 21.2529 33.3828 21.2529 31.2573" stroke="#288EEA" stroke-width="0.75" stroke-miterlimit="10"/>
<path d="M21.2529 31.2573C21.2529 28.407 22.3852 25.6734 24.4007 23.658C26.4161 21.6425 29.1496 20.5103 31.9999 20.5103" fill="white"/>
<path d="M21.2529 31.2573C21.2529 28.407 22.3852 25.6734 24.4007 23.658C26.4161 21.6425 29.1496 20.5103 31.9999 20.5103" stroke="#288EEA" stroke-width="0.75" stroke-miterlimit="10"/>
<path d="M32 28.9072V41.8332" stroke="#298EEA" stroke-width="2" stroke-miterlimit="10"/>
<path d="M26.8779 33.0651L32.0489 27.8931L37.1219 32.9661" stroke="#298EEA" stroke-width="2" stroke-linecap="round" stroke-linejoin="round"/>
</svg>
