<svg width="64" height="64" viewBox="0 0 64 64" fill="none" xmlns="http://www.w3.org/2000/svg">
<path d="M6.216 11.813H53.252C53.3093 11.813 53.3642 11.8357 53.4047 11.8763C53.4452 11.9168 53.468 11.9717 53.468 12.029V47.1C53.468 47.1575 53.4451 47.2127 53.4044 47.2534C53.3638 47.2941 53.3086 47.317 53.251 47.317H6.216C6.18755 47.317 6.15938 47.3114 6.13311 47.3005C6.10684 47.2895 6.08298 47.2735 6.06291 47.2534C6.04284 47.2332 6.02695 47.2093 6.01616 47.183C6.00536 47.1566 5.99987 47.1284 6 47.1V12.03C6 11.9727 6.02276 11.9178 6.06327 11.8773C6.10378 11.8367 6.15872 11.814 6.216 11.814V11.813Z" fill="#D4E8FB"/>
<path d="M52.469 12.814V46.321H7V12.814H52.469ZM53.253 10.814H6.216C5.89382 10.815 5.58514 10.9435 5.35732 11.1713C5.12951 11.3991 5.00105 11.7078 5 12.03V47.1C5.00105 47.4221 5.12951 47.7308 5.35732 47.9586C5.58514 48.1865 5.89382 48.3149 6.216 48.316H53.252C53.5744 48.3152 53.8833 48.1868 54.1113 47.959C54.3394 47.7312 54.4679 47.4223 54.469 47.1V12.03C54.4679 11.7078 54.3395 11.3991 54.1117 11.1713C53.8839 10.9435 53.5752 10.815 53.253 10.814Z" fill="#298EEA"/>
<path d="M57.7832 16.6792H10.7483C10.6284 16.6792 10.5312 16.7764 10.5312 16.8962V51.9692C10.5312 52.089 10.6284 52.1862 10.7483 52.1862H57.7832C57.9031 52.1862 58.0003 52.089 58.0003 51.9692V16.8962C58.0003 16.7764 57.9031 16.6792 57.7832 16.6792Z" fill="white"/>
<path d="M57.0003 17.6792V51.1862H11.5313V17.6792H57.0003ZM57.7843 15.6792H10.7483C10.425 15.68 10.1153 15.809 9.88717 16.0379C9.65899 16.2669 9.53098 16.577 9.53125 16.9002V51.9702C9.53231 52.2924 9.66076 52.6011 9.88857 52.8289C10.1164 53.0567 10.4251 53.1851 10.7472 53.1862H57.7843C58.1064 53.1851 58.4151 53.0567 58.6429 52.8289C58.8707 52.6011 58.9992 52.2924 59.0003 51.9702V16.9002C58.9992 16.578 58.8707 16.2693 58.6429 16.0415C58.4151 15.8137 58.1064 15.6853 57.7843 15.6842V15.6792Z" fill="#298EEA"/>
<path d="M10 24.5H59" stroke="#298EEA" stroke-miterlimit="10"/>
<path d="M53.9871 21.964C54.7427 21.964 55.3551 21.3516 55.3551 20.596C55.3551 19.8405 54.7427 19.228 53.9871 19.228C53.2316 19.228 52.6191 19.8405 52.6191 20.596C52.6191 21.3516 53.2316 21.964 53.9871 21.964Z" fill="#C9C9C9"/>
<path d="M48.5125 21.964C49.2681 21.964 49.8805 21.3516 49.8805 20.596C49.8805 19.8405 49.2681 19.228 48.5125 19.228C47.757 19.228 47.1445 19.8405 47.1445 20.596C47.1445 21.3516 47.757 21.964 48.5125 21.964Z" fill="#C9C9C9"/>
<path d="M43.0389 21.964C43.7944 21.964 44.4069 21.3516 44.4069 20.596C44.4069 19.8405 43.7944 19.228 43.0389 19.228C42.2834 19.228 41.6709 19.8405 41.6709 20.596C41.6709 21.3516 42.2834 21.964 43.0389 21.964Z" fill="#C9C9C9"/>
<path d="M27.0999 44.354C27.0067 44.3539 26.9147 44.3324 26.8312 44.2912C26.7476 44.2499 26.6746 44.19 26.6179 44.116L21.6299 37.634L26.8999 30.793C26.9981 30.6651 27.1432 30.5814 27.3032 30.5604C27.4632 30.5394 27.6249 30.5828 27.7529 30.681C27.8809 30.7793 27.9645 30.9244 27.9855 31.0843C28.0066 31.2443 27.9631 31.4061 27.8649 31.534L23.1699 37.634L27.5889 43.375C27.6582 43.465 27.7009 43.5726 27.7122 43.6857C27.7235 43.7987 27.7028 43.9127 27.6527 44.0146C27.6025 44.1165 27.5248 44.2023 27.4283 44.2623C27.3318 44.3223 27.2205 44.3541 27.1069 44.354H27.0999Z" fill="#298EEA"/>
<path d="M40.7608 44.354C40.854 44.354 40.946 44.3325 41.0296 44.2912C41.1131 44.2499 41.1861 44.19 41.2428 44.116L46.2318 37.633L40.9668 30.792C40.8686 30.6641 40.7235 30.5804 40.5635 30.5594C40.4035 30.5384 40.2418 30.5818 40.1138 30.68C39.9859 30.7783 39.9022 30.9234 39.8812 31.0833C39.8602 31.2433 39.9036 31.4051 40.0018 31.533L44.6968 37.633L40.2778 43.374C40.2085 43.464 40.1658 43.5717 40.1545 43.6847C40.1432 43.7977 40.1639 43.9117 40.214 44.0136C40.2642 44.1155 40.3419 44.2013 40.4384 44.2613C40.5349 44.3213 40.6462 44.3531 40.7598 44.353L40.7608 44.354Z" fill="#298EEA"/>
<path d="M30.7482 45.3301C30.6634 45.3303 30.5796 45.3126 30.5022 45.2781C30.3551 45.213 30.2398 45.0922 30.1816 44.9422C30.1235 44.7922 30.1273 44.6253 30.1922 44.4781L36.6802 29.8281C36.746 29.6815 36.8672 29.567 37.0172 29.5095C37.1672 29.452 37.3339 29.4562 37.4808 29.5212C37.6277 29.5862 37.7429 29.7067 37.8013 29.8564C37.8596 30.0061 37.8564 30.1728 37.7922 30.3201L31.3002 44.9671C31.2529 45.0743 31.1756 45.1655 31.0777 45.2299C30.9798 45.2943 30.8654 45.3291 30.7482 45.3301Z" fill="#298EEA"/>
</svg>
