<svg width="507" height="348" viewBox="0 0 507 348" fill="none" xmlns="http://www.w3.org/2000/svg">
<g clip-path="url(#clip0)">
<path d="M459 347.065C459 347.065 559.974 184.771 451.383 75.196C390.359 13.618 273.938 39.801 235.645 78.581C197.352 117.361 70.5678 56.453 32.0688 131.263C-17.6672 227.909 53.6888 347.196 53.6888 347.196L459 347.065Z" fill="#F7FCFF"/>
<path d="M23.27 345.196C16.8807 323.061 13.6488 300.135 13.67 277.096C13.666 141.996 123.189 32.4751 258.289 32.4751C393.389 32.4751 502.912 141.996 502.912 277.096C502.932 300.034 499.727 322.86 493.392 344.905" stroke="#DBF0FF" stroke-width="2" stroke-miterlimit="10"/>
<path d="M69.2743 344.773C61.5083 323.056 57.5501 300.161 57.5743 277.097C57.5783 166.248 147.439 76.3862 258.289 76.3862C369.139 76.3862 459 166.248 459 277.096C459.026 300.311 455.017 323.354 447.152 345.196" stroke="#DBF0FF" stroke-width="2" stroke-miterlimit="10"/>
<path d="M104.08 113.2H419.48C423.724 113.2 427.793 114.886 430.794 117.886C433.794 120.887 435.48 124.957 435.48 129.2V344.51H88.0801V129.2C88.0801 124.957 89.7658 120.887 92.7664 117.886C95.7669 114.886 99.8366 113.2 104.08 113.2Z" fill="white" stroke="#80C9FF" stroke-width="4" stroke-miterlimit="10"/>
<path d="M418.653 147.859H103.916V344.804H418.653V147.859Z" fill="white" stroke="#80C9FF" stroke-width="4" stroke-miterlimit="10"/>
<path d="M418.653 168.506H103.916V344.804H418.653V168.506Z" fill="white" stroke="#80C9FF" stroke-width="4" stroke-miterlimit="10"/>
<path d="M136.595 170.215H105.649V343.09H136.595V170.215Z" fill="#DEF1FF"/>
<path d="M202.724 177.864H152.477V186.429H202.724V177.864Z" fill="#80C9FF"/>
<path d="M196.894 292.654H152.477V300.225H196.894V292.654Z" fill="#80C9FF"/>
<path d="M213.379 292.654H199.702V300.225H213.379V292.654Z" fill="#80C9FF"/>
<path d="M292.929 292.654H266.583V300.225H292.929V292.654Z" fill="#DEF1FF"/>
<path d="M262.754 292.654H217.208V300.225H262.754V292.654Z" fill="#80C9FF"/>
<path d="M187.676 304.054H152.477V311.625H187.676V304.054Z" fill="#80C9FF"/>
<path d="M165.145 315.454H152.477V323.025H165.145V315.454Z" fill="#DEF1FF"/>
<path d="M204.68 315.454H168.974V323.025H204.68V315.454Z" fill="#DEF1FF"/>
<path d="M227.527 304.054H191.433V311.625H227.527V304.054Z" fill="#80C9FF"/>
<path d="M235.645 190.54H152.477V199.165H235.645V190.54Z" fill="#80C9FF"/>
<path d="M286.469 190.54H241.655V199.165H286.469V190.54Z" fill="#80C9FF"/>
<path d="M235.645 216.774H152.477V225.399H235.645V216.774Z" fill="#80C9FF"/>
<path d="M183.954 229.73H152.477V238.355H183.954V229.73Z" fill="#80C9FF"/>
<path d="M202.724 229.73H188.342V238.355H202.724V229.73Z" fill="#DEF1FF"/>
<path d="M215.972 255.53H152.477V264.155H215.972V255.53Z" fill="#80C9FF"/>
<path d="M202.724 242.574H152.477V251.199H202.724V242.574Z" fill="#DEF1FF"/>
<path d="M235.645 242.574H205.901V251.199H235.645V242.574Z" fill="#DEF1FF"/>
<path d="M269.143 242.574H239.399V251.199H269.143V242.574Z" fill="#DEF1FF"/>
<path d="M217.276 268.486H152.477V277.111H217.276V268.486Z" fill="#DEF1FF"/>
<path d="M259.731 268.486H221.373V277.111H259.731V268.486Z" fill="#DEF1FF"/>
<path d="M492 345.196H505" stroke="#80C9FF" stroke-width="4" stroke-linecap="round" stroke-linejoin="round"/>
<path d="M18 345.196H476" stroke="#80C9FF" stroke-width="4" stroke-linecap="round" stroke-linejoin="round"/>
<path d="M2 345.196H11" stroke="#80C9FF" stroke-width="4" stroke-linecap="round" stroke-linejoin="round"/>
<path d="M198.195 83.4118L196.335 75.1948H137.339V83.4118V127.309V135.526H222.462V83.4118H198.195Z" fill="#DEF1FF"/>
<path d="M203.46 78.3562L201.599 70.1382H142.603V78.3562V122.252V130.47H227.726V78.3562H203.46Z" fill="white"/>
<path d="M228.569 131.312H141.76V69.2959H202.272L204.133 77.5129H228.569V131.312ZM143.445 129.626H226.883V79.1959H202.789L200.929 70.9779H143.445V129.626Z" fill="#288EEA"/>
<path d="M227.726 93.3149H142.603C142.379 93.3149 142.165 93.2261 142.007 93.068C141.849 92.9099 141.76 92.6955 141.76 92.4719C141.76 92.2483 141.849 92.0339 142.007 91.8758C142.165 91.7177 142.379 91.6289 142.603 91.6289H227.726C227.949 91.6289 228.164 91.7177 228.322 91.8758C228.48 92.0339 228.569 92.2483 228.569 92.4719C228.569 92.6955 228.48 92.9099 228.322 93.068C228.164 93.2261 227.949 93.3149 227.726 93.3149Z" fill="#288EEA"/>
<path d="M185.164 89.312H163.813V95.774H185.164V89.312Z" fill="white"/>
<path d="M186.007 96.6167H162.972V88.4688H186.007V96.6167ZM164.657 94.9307H184.321V90.1547H164.657V94.9307Z" fill="#288EEA"/>
<path d="M274.136 39.802C278.183 39.802 281.464 36.5211 281.464 32.474C281.464 28.4269 278.183 25.146 274.136 25.146C270.088 25.146 266.808 28.4269 266.808 32.474C266.808 36.5211 270.088 39.802 274.136 39.802Z" fill="#D4E8FB" stroke="#298EEA" stroke-width="4" stroke-miterlimit="10" stroke-linecap="round"/>
<path d="M101.501 32.475C104.048 32.475 106.113 30.4101 106.113 27.863C106.113 25.3158 104.048 23.251 101.501 23.251C98.9535 23.251 96.8887 25.3158 96.8887 27.863C96.8887 30.4101 98.9535 32.475 101.501 32.475Z" fill="#DEF1FF"/>
<path d="M44.8901 116.094C46.489 116.094 47.7851 114.798 47.7851 113.199C47.7851 111.6 46.489 110.304 44.8901 110.304C43.2913 110.304 41.9951 111.6 41.9951 113.199C41.9951 114.798 43.2913 116.094 44.8901 116.094Z" fill="#298EEA"/>
<path d="M302.294 19.0908C303.893 19.0908 305.189 17.7946 305.189 16.1958C305.189 14.5969 303.893 13.3008 302.294 13.3008C300.696 13.3008 299.399 14.5969 299.399 16.1958C299.399 17.7946 300.696 19.0908 302.294 19.0908Z" fill="#DEF1FF"/>
<path d="M459.002 127.052C456.512 127.051 454.078 127.789 452.008 129.172C449.937 130.555 448.323 132.521 447.37 134.822C446.417 137.122 446.167 139.653 446.653 142.096C447.138 144.538 448.337 146.781 450.098 148.542C451.858 150.303 454.101 151.502 456.543 151.988C458.985 152.474 461.517 152.224 463.817 151.272C466.118 150.319 468.084 148.705 469.467 146.635C470.851 144.565 471.589 142.131 471.589 139.641C471.586 136.303 470.259 133.103 467.899 130.743C465.54 128.383 462.34 127.055 459.002 127.052ZM459.002 147.261C457.495 147.261 456.022 146.814 454.768 145.977C453.515 145.14 452.538 143.95 451.961 142.557C451.385 141.165 451.234 139.633 451.527 138.155C451.821 136.677 452.547 135.319 453.613 134.253C454.678 133.187 456.036 132.461 457.514 132.167C458.992 131.873 460.525 132.024 461.917 132.601C463.309 133.177 464.5 134.154 465.337 135.407C466.174 136.66 466.621 138.134 466.621 139.641C466.619 141.661 465.815 143.597 464.387 145.026C462.959 146.454 461.022 147.258 459.002 147.261Z" fill="#DDDDDD"/>
<path d="M466.578 140.445C466.423 141.909 465.846 143.297 464.918 144.44C463.991 145.584 462.751 146.434 461.35 146.887C459.95 147.341 458.447 147.379 457.025 146.997C455.603 146.614 454.323 145.828 453.338 144.733C452.354 143.638 451.708 142.281 451.478 140.827C451.249 139.372 451.446 137.883 452.045 136.538C452.645 135.193 453.621 134.051 454.857 133.249C456.092 132.448 457.533 132.021 459.005 132.022V127.046C456.546 127.041 454.14 127.756 452.082 129.102C450.024 130.449 448.406 132.368 447.425 134.623C446.445 136.878 446.146 139.371 446.565 141.794C446.984 144.217 448.103 146.464 449.784 148.259C451.465 150.054 453.635 151.317 456.025 151.894C458.415 152.471 460.922 152.336 463.237 151.505C465.551 150.675 467.572 149.185 469.05 147.22C470.528 145.255 471.399 142.9 471.555 140.446L466.578 140.445Z" fill="#288EEA"/>
<path fill-rule="evenodd" clip-rule="evenodd" d="M481.345 30.5651C481.345 30.8023 481.25 31.0296 481.083 31.1973C480.915 31.365 480.688 31.4591 480.451 31.4591C480.333 31.4593 480.217 31.4363 480.108 31.3914C480 31.3465 479.901 31.2807 479.818 31.1977C479.735 31.1146 479.669 31.016 479.624 30.9075C479.579 30.799 479.556 30.6826 479.556 30.5651V26.2211C479.556 26.1037 479.579 25.9873 479.624 25.8788C479.669 25.7703 479.735 25.6717 479.818 25.5886C479.901 25.5056 480 25.4398 480.108 25.3949C480.217 25.35 480.333 25.327 480.451 25.3271C480.688 25.3271 480.915 25.4213 481.083 25.589C481.25 25.7567 481.345 25.984 481.345 26.2211V30.5651Z" fill="#80C9FF"/>
<path fill-rule="evenodd" clip-rule="evenodd" d="M481.345 39.0408C481.345 39.2779 481.25 39.5053 481.083 39.6729C480.915 39.8406 480.688 39.9348 480.451 39.9348C480.333 39.9349 480.217 39.9119 480.108 39.867C480 39.8221 479.901 39.7563 479.818 39.6733C479.735 39.5902 479.669 39.4916 479.624 39.3831C479.579 39.2746 479.556 39.1582 479.556 39.0408V34.6958C479.556 34.5783 479.579 34.4619 479.624 34.3534C479.669 34.2449 479.735 34.1463 479.818 34.0633C479.901 33.9802 480 33.9144 480.108 33.8695C480.217 33.8247 480.333 33.8016 480.451 33.8018C480.688 33.8018 480.915 33.8959 481.083 34.0636C481.25 34.2313 481.345 34.4587 481.345 34.6958V39.0408Z" fill="#80C9FF"/>
<path fill-rule="evenodd" clip-rule="evenodd" d="M482.515 33.3759C482.278 33.3759 482.051 33.2817 481.883 33.114C481.715 32.9464 481.621 32.719 481.621 32.4819C481.621 32.2448 481.715 32.0174 481.883 31.8497C482.051 31.6821 482.278 31.5879 482.515 31.5879H486.859C487.096 31.5879 487.324 31.6821 487.491 31.8497C487.659 32.0174 487.753 32.2448 487.753 32.4819C487.753 32.719 487.659 32.9464 487.491 33.114C487.324 33.2817 487.096 33.3759 486.859 33.3759H482.515Z" fill="#80C9FF"/>
<path fill-rule="evenodd" clip-rule="evenodd" d="M474.04 33.3759C473.802 33.3759 473.575 33.2817 473.407 33.114C473.24 32.9464 473.146 32.719 473.146 32.4819C473.146 32.2448 473.24 32.0174 473.407 31.8497C473.575 31.6821 473.802 31.5879 474.04 31.5879H478.384C478.621 31.5879 478.848 31.6821 479.016 31.8497C479.183 32.0174 479.278 32.2448 479.278 32.4819C479.278 32.719 479.183 32.9464 479.016 33.114C478.848 33.2817 478.621 33.3759 478.384 33.3759H474.04Z" fill="#80C9FF"/>
<path fill-rule="evenodd" clip-rule="evenodd" d="M127.903 34.852C127.903 34.9649 127.88 35.0768 127.837 35.1811C127.794 35.2854 127.731 35.3802 127.651 35.4601C127.571 35.54 127.476 35.6033 127.372 35.6465C127.267 35.6897 127.156 35.712 127.043 35.712C126.93 35.7121 126.818 35.69 126.713 35.6468C126.609 35.6037 126.514 35.5403 126.434 35.4605C126.354 35.3806 126.29 35.2857 126.247 35.1813C126.204 35.0769 126.182 34.965 126.182 34.852V30.673C126.182 30.56 126.204 30.4481 126.247 30.3436C126.29 30.2392 126.354 30.1444 126.434 30.0645C126.514 29.9847 126.609 29.9213 126.713 29.8782C126.818 29.835 126.93 29.8129 127.043 29.813C127.156 29.813 127.267 29.8352 127.372 29.8785C127.476 29.9217 127.571 29.985 127.651 30.0649C127.731 30.1447 127.794 30.2395 127.837 30.3439C127.88 30.4482 127.903 30.5601 127.903 30.673V34.852Z" fill="#80C9FF"/>
<path fill-rule="evenodd" clip-rule="evenodd" d="M127.903 43.0058C127.903 43.1187 127.88 43.2306 127.837 43.3349C127.794 43.4392 127.731 43.5341 127.651 43.6139C127.571 43.6938 127.476 43.7571 127.372 43.8003C127.267 43.8436 127.156 43.8658 127.043 43.8658C126.93 43.8659 126.818 43.8438 126.713 43.8006C126.609 43.7575 126.514 43.6941 126.434 43.6143C126.354 43.5344 126.29 43.4395 126.247 43.3351C126.204 43.2307 126.182 43.1188 126.182 43.0058V38.8268C126.182 38.7138 126.204 38.6019 126.247 38.4975C126.29 38.3931 126.354 38.2982 126.434 38.2183C126.514 38.1385 126.609 38.0751 126.713 38.032C126.818 37.9888 126.93 37.9667 127.043 37.9668C127.156 37.9668 127.267 37.989 127.372 38.0323C127.476 38.0755 127.571 38.1388 127.651 38.2187C127.731 38.2985 127.794 38.3933 127.837 38.4977C127.88 38.602 127.903 38.7139 127.903 38.8268V43.0058Z" fill="#80C9FF"/>
<path fill-rule="evenodd" clip-rule="evenodd" d="M129.03 37.5559C128.802 37.5559 128.583 37.4653 128.422 37.3041C128.261 37.1428 128.17 36.924 128.17 36.6959C128.17 36.4679 128.261 36.2491 128.422 36.0878C128.583 35.9265 128.802 35.8359 129.03 35.8359H133.209C133.437 35.8359 133.656 35.9265 133.817 36.0878C133.978 36.2491 134.069 36.4679 134.069 36.6959C134.069 36.924 133.978 37.1428 133.817 37.3041C133.656 37.4653 133.437 37.5559 133.209 37.5559H129.03Z" fill="#80C9FF"/>
<path fill-rule="evenodd" clip-rule="evenodd" d="M120.876 37.5559C120.648 37.5559 120.429 37.4653 120.268 37.3041C120.106 37.1428 120.016 36.924 120.016 36.6959C120.016 36.4679 120.106 36.2491 120.268 36.0878C120.429 35.9265 120.648 35.8359 120.876 35.8359H125.055C125.283 35.8359 125.501 35.9265 125.663 36.0878C125.824 36.2491 125.915 36.4679 125.915 36.6959C125.915 36.924 125.824 37.1428 125.663 37.3041C125.501 37.4653 125.283 37.5559 125.055 37.5559H120.876Z" fill="#80C9FF"/>
<path fill-rule="evenodd" clip-rule="evenodd" d="M24.7337 5.03998C24.7337 5.26806 24.6431 5.48681 24.4818 5.64809C24.3205 5.80937 24.1018 5.89998 23.8737 5.89998C23.6456 5.89998 23.4268 5.80937 23.2656 5.64809C23.1043 5.48681 23.0137 5.26806 23.0137 5.03998V0.860976C23.0137 0.63289 23.1043 0.414146 23.2656 0.252865C23.4268 0.0915835 23.6456 0.000976562 23.8737 0.000976562C24.1018 0.000976562 24.3205 0.0915835 24.4818 0.252865C24.6431 0.414146 24.7337 0.63289 24.7337 0.860976V5.03998Z" fill="#EDEDED"/>
<path fill-rule="evenodd" clip-rule="evenodd" d="M24.7337 13.1958C24.7337 13.4239 24.6431 13.6426 24.4818 13.8039C24.3205 13.9652 24.1018 14.0558 23.8737 14.0558C23.6456 14.0558 23.4268 13.9652 23.2656 13.8039C23.1043 13.6426 23.0137 13.4239 23.0137 13.1958V9.01381C23.0137 8.78572 23.1043 8.56698 23.2656 8.4057C23.4268 8.24442 23.6456 8.15381 23.8737 8.15381C24.1018 8.15381 24.3205 8.24442 24.4818 8.4057C24.6431 8.56698 24.7337 8.78572 24.7337 9.01381V13.1958Z" fill="#EDEDED"/>
<path fill-rule="evenodd" clip-rule="evenodd" d="M25.86 7.74393C25.6319 7.74393 25.4132 7.65332 25.2519 7.49204C25.0906 7.33076 25 7.11201 25 6.88393C25 6.65584 25.0906 6.4371 25.2519 6.27581C25.4132 6.11453 25.6319 6.02393 25.86 6.02393H30.039C30.2671 6.02393 30.4858 6.11453 30.6471 6.27581C30.8084 6.4371 30.899 6.65584 30.899 6.88393C30.899 7.11201 30.8084 7.33076 30.6471 7.49204C30.4858 7.65332 30.2671 7.74393 30.039 7.74393H25.86Z" fill="#EDEDED"/>
<path fill-rule="evenodd" clip-rule="evenodd" d="M17.7057 7.74393C17.4776 7.74393 17.2589 7.65332 17.0976 7.49204C16.9363 7.33076 16.8457 7.11201 16.8457 6.88393C16.8457 6.65584 16.9363 6.4371 17.0976 6.27581C17.2589 6.11453 17.4776 6.02393 17.7057 6.02393H21.8887C22.1168 6.02393 22.3355 6.11453 22.4968 6.27581C22.6581 6.4371 22.7487 6.65584 22.7487 6.88393C22.7487 7.11201 22.6581 7.33076 22.4968 7.49204C22.3355 7.65332 22.1168 7.74393 21.8887 7.74393H17.7057Z" fill="#EDEDED"/>
<path fill-rule="evenodd" clip-rule="evenodd" d="M47.7346 192.866C47.7346 192.979 47.7124 193.091 47.6692 193.195C47.626 193.3 47.5626 193.394 47.4828 193.474C47.4029 193.554 47.3081 193.617 47.2038 193.661C47.0994 193.704 46.9876 193.726 46.8746 193.726C46.7617 193.726 46.6499 193.704 46.5455 193.661C46.4412 193.617 46.3464 193.554 46.2665 193.474C46.1867 193.394 46.1233 193.3 46.0801 193.195C46.0369 193.091 46.0146 192.979 46.0146 192.866V188.687C46.0146 188.574 46.0369 188.462 46.0801 188.358C46.1233 188.254 46.1867 188.159 46.2665 188.079C46.3464 187.999 46.4412 187.936 46.5455 187.893C46.6499 187.849 46.7617 187.827 46.8746 187.827C46.9876 187.827 47.0994 187.849 47.2038 187.893C47.3081 187.936 47.4029 187.999 47.4828 188.079C47.5626 188.159 47.626 188.254 47.6692 188.358C47.7124 188.462 47.7346 188.574 47.7346 188.687V192.866Z" fill="#EDEDED"/>
<path fill-rule="evenodd" clip-rule="evenodd" d="M47.7346 201.019C47.7346 201.132 47.7124 201.244 47.6692 201.348C47.626 201.452 47.5626 201.547 47.4828 201.627C47.4029 201.707 47.3081 201.77 47.2038 201.814C47.0994 201.857 46.9876 201.879 46.8746 201.879C46.7617 201.879 46.6499 201.857 46.5455 201.814C46.4412 201.77 46.3464 201.707 46.2665 201.627C46.1867 201.547 46.1233 201.452 46.0801 201.348C46.0369 201.244 46.0146 201.132 46.0146 201.019V196.84C46.0146 196.612 46.1053 196.393 46.2665 196.232C46.4278 196.071 46.6466 195.98 46.8746 195.98C47.1027 195.98 47.3215 196.071 47.4828 196.232C47.644 196.393 47.7346 196.612 47.7346 196.84V201.019Z" fill="#EDEDED"/>
<path fill-rule="evenodd" clip-rule="evenodd" d="M48.862 195.57C48.6339 195.57 48.4151 195.479 48.2538 195.318C48.0926 195.157 48.002 194.938 48.002 194.71C48.002 194.482 48.0926 194.263 48.2538 194.102C48.4151 193.941 48.6339 193.85 48.862 193.85H53.041C53.1539 193.85 53.2657 193.872 53.3701 193.916C53.4744 193.959 53.5692 194.022 53.6491 194.102C53.7289 194.182 53.7923 194.277 53.8355 194.381C53.8787 194.485 53.901 194.597 53.901 194.71C53.901 194.823 53.8787 194.935 53.8355 195.039C53.7923 195.144 53.7289 195.238 53.6491 195.318C53.5692 195.398 53.4744 195.461 53.3701 195.505C53.2657 195.548 53.1539 195.57 53.041 195.57H48.862Z" fill="#EDEDED"/>
<path fill-rule="evenodd" clip-rule="evenodd" d="M40.7077 195.57C40.4796 195.57 40.2608 195.479 40.0995 195.318C39.9383 195.157 39.8477 194.938 39.8477 194.71C39.8477 194.482 39.9383 194.263 40.0995 194.102C40.2608 193.941 40.4796 193.85 40.7077 193.85H44.8887C45.1167 193.85 45.3355 193.941 45.4968 194.102C45.6581 194.263 45.7487 194.482 45.7487 194.71C45.7487 194.938 45.6581 195.157 45.4968 195.318C45.3355 195.479 45.1167 195.57 44.8887 195.57H40.7077Z" fill="#EDEDED"/>
<path d="M410.178 32.6299H340.016C339.567 32.6299 339.202 32.9943 339.202 33.4439V85.7629C339.202 86.2124 339.567 86.5769 340.016 86.5769H410.178C410.628 86.5769 410.992 86.2124 410.992 85.7629V33.4439C410.992 32.9943 410.628 32.6299 410.178 32.6299Z" fill="white"/>
<path d="M409.989 33.6309V85.5779H340.199V33.6309H409.989ZM410.175 31.6309H340.016C339.535 31.6322 339.074 31.8239 338.734 32.1639C338.394 32.504 338.202 32.9649 338.201 33.4459V85.7629C338.203 86.2437 338.395 86.7043 338.735 87.0442C339.075 87.3841 339.535 87.5756 340.016 87.5769H410.177C410.658 87.5753 411.118 87.3837 411.458 87.0438C411.798 86.704 411.99 86.2435 411.991 85.7629V33.4449C411.99 32.9641 411.798 32.5034 411.458 32.1633C411.119 31.8232 410.658 31.6315 410.177 31.6299L410.175 31.6309Z" fill="#298EEA"/>
<path d="M340 44.6958H411" stroke="#298EEA" stroke-miterlimit="10"/>
<path d="M404.515 41.0049C405.642 41.0049 406.556 40.0911 406.556 38.9639C406.556 37.8366 405.642 36.9229 404.515 36.9229C403.387 36.9229 402.474 37.8366 402.474 38.9639C402.474 40.0911 403.387 41.0049 404.515 41.0049Z" fill="#C9C9C9"/>
<path d="M396.349 41.0049C397.476 41.0049 398.39 40.0911 398.39 38.9639C398.39 37.8366 397.476 36.9229 396.349 36.9229C395.221 36.9229 394.308 37.8366 394.308 38.9639C394.308 40.0911 395.221 41.0049 396.349 41.0049Z" fill="#C9C9C9"/>
<path d="M388.184 41.0049C389.311 41.0049 390.225 40.0911 390.225 38.9639C390.225 37.8366 389.311 36.9229 388.184 36.9229C387.056 36.9229 386.143 37.8366 386.143 38.9639C386.143 40.0911 387.056 41.0049 388.184 41.0049Z" fill="#C9C9C9"/>
<path d="M364.411 74.4041C364.272 74.4041 364.135 74.3721 364.01 74.3108C363.886 74.2494 363.777 74.1602 363.692 74.0501L356.25 64.3801L364.103 54.1801C364.176 54.0857 364.266 54.0064 364.369 53.9469C364.473 53.8874 364.587 53.8488 364.705 53.8334C364.823 53.8179 364.943 53.8259 365.058 53.8568C365.173 53.8877 365.281 53.941 365.375 54.0136C365.47 54.0863 365.549 54.1768 365.609 54.28C365.668 54.3833 365.707 54.4972 365.722 54.6154C365.738 54.7336 365.73 54.8536 365.699 54.9687C365.668 55.0838 365.615 55.1917 365.542 55.2861L358.542 64.3861L365.134 72.9501C365.237 73.0844 365.301 73.2449 365.318 73.4135C365.334 73.582 365.304 73.7519 365.229 73.9039C365.154 74.0558 365.038 74.1838 364.894 74.2733C364.75 74.3627 364.584 74.4102 364.415 74.4101L364.411 74.4041Z" fill="#298EEA"/>
<path d="M384.789 74.4042C384.928 74.4041 385.065 74.3721 385.189 74.3108C385.314 74.2494 385.423 74.1602 385.508 74.0501L392.95 64.3801L385.097 54.1802C384.95 53.9893 384.734 53.8646 384.495 53.8334C384.256 53.8021 384.015 53.867 383.824 54.0136C383.633 54.1603 383.509 54.3768 383.477 54.6154C383.446 54.8541 383.511 55.0953 383.658 55.2861L390.658 64.3862L384.066 72.9501C383.962 73.0844 383.899 73.2449 383.882 73.4135C383.865 73.582 383.896 73.7519 383.971 73.9039C384.046 74.0558 384.162 74.1838 384.305 74.2733C384.449 74.3627 384.615 74.4102 384.785 74.4101L384.789 74.4042Z" fill="#298EEA"/>
<path d="M369.849 75.8589C369.723 75.8592 369.597 75.8326 369.482 75.7809C369.373 75.7329 369.274 75.6637 369.191 75.5772C369.108 75.4908 369.044 75.3888 369.001 75.2773C368.958 75.1657 368.937 75.0467 368.941 74.9272C368.944 74.8077 368.971 74.69 369.02 74.5809L378.699 52.7329C378.796 52.5129 378.977 52.3406 379.202 52.2539C379.426 52.1671 379.676 52.1731 379.896 52.2704C380.116 52.3678 380.288 52.5485 380.375 52.7729C380.461 52.9973 380.455 53.2469 380.358 53.4669L370.679 75.3179C370.608 75.4787 370.492 75.6154 370.344 75.7115C370.197 75.8075 370.025 75.8587 369.849 75.8589Z" fill="#298EEA"/>
<path d="M97.0793 186.79C92.4053 186.79 87.8362 185.404 83.9499 182.807C80.0636 180.21 77.0347 176.519 75.2461 172.201C73.4574 167.883 72.9895 163.131 73.9014 158.547C74.8134 153.963 77.0642 149.752 80.3693 146.447C83.6744 143.142 87.8853 140.892 92.4695 139.98C97.0537 139.068 101.805 139.536 106.124 141.325C110.442 143.114 114.132 146.143 116.729 150.029C119.326 153.916 120.711 158.485 120.711 163.159C120.704 169.424 118.212 175.431 113.782 179.861C109.351 184.291 103.345 186.783 97.0793 186.79Z" fill="white"/>
<path d="M97.0793 140.527C101.555 140.527 105.931 141.854 109.653 144.341C113.375 146.828 116.276 150.363 117.989 154.498C119.701 158.633 120.15 163.184 119.276 167.574C118.403 171.964 116.248 175.997 113.083 179.162C109.917 182.327 105.885 184.483 101.495 185.356C97.1044 186.229 92.5538 185.781 88.4184 184.068C84.2829 182.355 80.7483 179.454 78.2615 175.733C75.7746 172.011 74.4473 167.635 74.4473 163.159C74.4539 157.159 76.8405 151.406 81.0833 147.163C85.3262 142.92 91.0789 140.533 97.0793 140.527ZM97.0793 138.527C92.2075 138.527 87.4452 139.972 83.3945 142.678C79.3438 145.385 76.1866 149.232 74.3223 153.733C72.4579 158.234 71.9701 163.186 72.9206 167.964C73.871 172.742 76.217 177.131 79.6618 180.576C83.1067 184.021 87.4957 186.367 92.2738 187.318C97.052 188.268 102.005 187.78 106.506 185.916C111.006 184.052 114.853 180.894 117.56 176.844C120.267 172.793 121.711 168.031 121.711 163.159C121.711 156.626 119.116 150.361 114.497 145.741C109.877 141.122 103.612 138.527 97.0793 138.527Z" fill="#298EEA"/>
<path d="M97.0802 193.12C113.628 193.12 127.042 179.705 127.042 163.158C127.042 146.61 113.628 133.196 97.0802 133.196C80.5326 133.196 67.1182 146.61 67.1182 163.158C67.1182 179.705 80.5326 193.12 97.0802 193.12Z" stroke="#DBF0FF" stroke-width="2" stroke-miterlimit="10"/>
<path d="M84.9355 160.333V168.583C84.9355 170.005 84.2907 170.716 83.001 170.716C82.723 170.716 82.4655 170.675 82.2285 170.593V169.582C82.3743 169.618 82.5658 169.636 82.8027 169.636C83.0853 169.636 83.2995 169.559 83.4453 169.404C83.5957 169.253 83.6709 168.989 83.6709 168.611V160.333H84.9355ZM83.541 158.371C83.541 158.17 83.6025 157.999 83.7256 157.858C83.8532 157.712 84.0378 157.639 84.2793 157.639C84.5254 157.639 84.7122 157.71 84.8398 157.851C84.9674 157.992 85.0312 158.166 85.0312 158.371C85.0312 158.576 84.9674 158.747 84.8398 158.883C84.7122 159.02 84.5254 159.088 84.2793 159.088C84.0332 159.088 83.8486 159.02 83.7256 158.883C83.6025 158.747 83.541 158.576 83.541 158.371ZM91.2861 165.767C91.2861 165.425 91.1562 165.161 90.8965 164.974C90.6413 164.783 90.1924 164.619 89.5498 164.482C88.9118 164.345 88.4036 164.181 88.0254 163.99C87.6517 163.798 87.3737 163.57 87.1914 163.306C87.0137 163.042 86.9248 162.727 86.9248 162.363C86.9248 161.757 87.18 161.244 87.6904 160.825C88.2054 160.405 88.8617 160.196 89.6592 160.196C90.4977 160.196 91.1768 160.412 91.6963 160.845C92.2204 161.278 92.4824 161.832 92.4824 162.506H91.2109C91.2109 162.16 91.0628 161.861 90.7666 161.611C90.4749 161.36 90.1058 161.235 89.6592 161.235C89.1989 161.235 88.8389 161.335 88.5791 161.536C88.3193 161.736 88.1895 161.998 88.1895 162.322C88.1895 162.627 88.3102 162.857 88.5518 163.012C88.7933 163.167 89.2285 163.315 89.8574 163.457C90.4909 163.598 91.0036 163.766 91.3955 163.962C91.7874 164.158 92.0768 164.395 92.2637 164.673C92.4551 164.947 92.5508 165.282 92.5508 165.678C92.5508 166.339 92.2865 166.87 91.7578 167.271C91.2292 167.667 90.5433 167.866 89.7002 167.866C89.1077 167.866 88.5837 167.761 88.1279 167.551C87.6722 167.342 87.3145 167.05 87.0547 166.676C86.7995 166.298 86.6719 165.89 86.6719 165.453H87.9365C87.9593 165.876 88.1279 166.214 88.4424 166.464C88.7614 166.71 89.1807 166.833 89.7002 166.833C90.1787 166.833 90.5615 166.738 90.8486 166.546C91.1403 166.35 91.2861 166.091 91.2861 165.767ZM93.8633 163.962C93.8633 163.238 94.0046 162.586 94.2871 162.007C94.5742 161.429 94.9707 160.982 95.4766 160.667C95.987 160.353 96.568 160.196 97.2197 160.196C98.2269 160.196 99.0404 160.544 99.6602 161.242C100.285 161.939 100.597 162.866 100.597 164.024V164.113C100.597 164.833 100.458 165.48 100.18 166.054C99.9062 166.624 99.512 167.068 98.9971 167.387C98.4867 167.706 97.8988 167.866 97.2334 167.866C96.2308 167.866 95.4173 167.517 94.793 166.82C94.1732 166.123 93.8633 165.2 93.8633 164.051V163.962ZM95.1348 164.113C95.1348 164.933 95.3239 165.592 95.7021 166.088C96.085 166.585 96.5954 166.833 97.2334 166.833C97.876 166.833 98.3864 166.583 98.7646 166.082C99.1429 165.576 99.332 164.869 99.332 163.962C99.332 163.151 99.1383 162.495 98.751 161.994C98.3682 161.488 97.8577 161.235 97.2197 161.235C96.5954 161.235 96.0918 161.483 95.709 161.98C95.3262 162.477 95.1348 163.188 95.1348 164.113ZM103.379 160.333L103.42 161.262C103.985 160.551 104.723 160.196 105.635 160.196C107.198 160.196 107.986 161.078 108 162.841V167.729H106.735V162.834C106.731 162.301 106.608 161.907 106.366 161.652C106.129 161.397 105.758 161.269 105.252 161.269C104.842 161.269 104.482 161.378 104.172 161.597C103.862 161.816 103.62 162.103 103.447 162.458V167.729H102.183V160.333H103.379Z" fill="#80C9FF"/>
<path d="M84.9355 160.333V168.583C84.9355 170.005 84.2907 170.716 83.001 170.716C82.723 170.716 82.4655 170.675 82.2285 170.593V169.582C82.3743 169.618 82.5658 169.636 82.8027 169.636C83.0853 169.636 83.2995 169.559 83.4453 169.404C83.5957 169.253 83.6709 168.989 83.6709 168.611V160.333H84.9355ZM83.541 158.371C83.541 158.17 83.6025 157.999 83.7256 157.858C83.8532 157.712 84.0378 157.639 84.2793 157.639C84.5254 157.639 84.7122 157.71 84.8398 157.851C84.9674 157.992 85.0312 158.166 85.0312 158.371C85.0312 158.576 84.9674 158.747 84.8398 158.883C84.7122 159.02 84.5254 159.088 84.2793 159.088C84.0332 159.088 83.8486 159.02 83.7256 158.883C83.6025 158.747 83.541 158.576 83.541 158.371ZM91.2861 165.767C91.2861 165.425 91.1562 165.161 90.8965 164.974C90.6413 164.783 90.1924 164.619 89.5498 164.482C88.9118 164.345 88.4036 164.181 88.0254 163.99C87.6517 163.798 87.3737 163.57 87.1914 163.306C87.0137 163.042 86.9248 162.727 86.9248 162.363C86.9248 161.757 87.18 161.244 87.6904 160.825C88.2054 160.405 88.8617 160.196 89.6592 160.196C90.4977 160.196 91.1768 160.412 91.6963 160.845C92.2204 161.278 92.4824 161.832 92.4824 162.506H91.2109C91.2109 162.16 91.0628 161.861 90.7666 161.611C90.4749 161.36 90.1058 161.235 89.6592 161.235C89.1989 161.235 88.8389 161.335 88.5791 161.536C88.3193 161.736 88.1895 161.998 88.1895 162.322C88.1895 162.627 88.3102 162.857 88.5518 163.012C88.7933 163.167 89.2285 163.315 89.8574 163.457C90.4909 163.598 91.0036 163.766 91.3955 163.962C91.7874 164.158 92.0768 164.395 92.2637 164.673C92.4551 164.947 92.5508 165.282 92.5508 165.678C92.5508 166.339 92.2865 166.87 91.7578 167.271C91.2292 167.667 90.5433 167.866 89.7002 167.866C89.1077 167.866 88.5837 167.761 88.1279 167.551C87.6722 167.342 87.3145 167.05 87.0547 166.676C86.7995 166.298 86.6719 165.89 86.6719 165.453H87.9365C87.9593 165.876 88.1279 166.214 88.4424 166.464C88.7614 166.71 89.1807 166.833 89.7002 166.833C90.1787 166.833 90.5615 166.738 90.8486 166.546C91.1403 166.35 91.2861 166.091 91.2861 165.767ZM93.8633 163.962C93.8633 163.238 94.0046 162.586 94.2871 162.007C94.5742 161.429 94.9707 160.982 95.4766 160.667C95.987 160.353 96.568 160.196 97.2197 160.196C98.2269 160.196 99.0404 160.544 99.6602 161.242C100.285 161.939 100.597 162.866 100.597 164.024V164.113C100.597 164.833 100.458 165.48 100.18 166.054C99.9062 166.624 99.512 167.068 98.9971 167.387C98.4867 167.706 97.8988 167.866 97.2334 167.866C96.2308 167.866 95.4173 167.517 94.793 166.82C94.1732 166.123 93.8633 165.2 93.8633 164.051V163.962ZM95.1348 164.113C95.1348 164.933 95.3239 165.592 95.7021 166.088C96.085 166.585 96.5954 166.833 97.2334 166.833C97.876 166.833 98.3864 166.583 98.7646 166.082C99.1429 165.576 99.332 164.869 99.332 163.962C99.332 163.151 99.1383 162.495 98.751 161.994C98.3682 161.488 97.8577 161.235 97.2197 161.235C96.5954 161.235 96.0918 161.483 95.709 161.98C95.3262 162.477 95.1348 163.188 95.1348 164.113ZM103.379 160.333L103.42 161.262C103.985 160.551 104.723 160.196 105.635 160.196C107.198 160.196 107.986 161.078 108 162.841V167.729H106.735V162.834C106.731 162.301 106.608 161.907 106.366 161.652C106.129 161.397 105.758 161.269 105.252 161.269C104.842 161.269 104.482 161.378 104.172 161.597C103.862 161.816 103.62 162.103 103.447 162.458V167.729H102.183V160.333H103.379Z" fill="#80C9FF"/>
<path d="M444.614 219.485C458.218 219.485 469.246 208.457 469.246 194.853C469.246 181.249 458.218 170.221 444.614 170.221C431.011 170.221 419.982 181.249 419.982 194.853C419.982 208.457 431.011 219.485 444.614 219.485Z" fill="#298EEA"/>
<path d="M444.614 165.891C450.343 165.891 455.942 167.59 460.705 170.772C465.468 173.954 469.18 178.478 471.372 183.77C473.564 189.062 474.137 194.885 473.02 200.503C471.902 206.121 469.144 211.282 465.094 215.332C461.043 219.383 455.883 222.141 450.265 223.259C444.646 224.376 438.823 223.803 433.531 221.611C428.239 219.418 423.716 215.706 420.533 210.944C417.351 206.181 415.652 200.581 415.652 194.853C415.662 187.175 418.717 179.814 424.146 174.385C429.575 168.956 436.936 165.901 444.614 165.891ZM444.614 164.891C438.688 164.891 432.896 166.648 427.968 169.941C423.041 173.233 419.201 177.912 416.933 183.387C414.665 188.862 414.072 194.886 415.228 200.698C416.384 206.51 419.238 211.849 423.428 216.039C427.618 220.23 432.957 223.083 438.769 224.239C444.581 225.395 450.605 224.802 456.08 222.534C461.555 220.267 466.235 216.426 469.527 211.499C472.819 206.572 474.576 200.779 474.576 194.853C474.576 186.907 471.42 179.286 465.801 173.667C460.182 168.048 452.561 164.891 444.614 164.891Z" fill="#298EEA"/>
<path d="M441.626 193.132C441.626 194.74 441.258 196.035 440.522 197.019C439.787 198.002 438.791 198.493 437.534 198.493C436.252 198.493 435.243 198.086 434.507 197.272V202.36H432.7V187.731H434.351L434.438 188.903C435.174 187.992 436.196 187.536 437.505 187.536C438.774 187.536 439.777 188.015 440.513 188.972C441.255 189.929 441.626 191.26 441.626 192.966V193.132ZM439.819 192.927C439.819 191.735 439.565 190.795 439.058 190.104C438.55 189.414 437.853 189.069 436.968 189.069C435.874 189.069 435.054 189.554 434.507 190.524V195.573C435.047 196.537 435.874 197.019 436.987 197.019C437.853 197.019 438.54 196.677 439.048 195.993C439.562 195.303 439.819 194.281 439.819 192.927ZM445.737 189.011C446.538 188.028 447.58 187.536 448.862 187.536C451.095 187.536 452.222 188.796 452.241 191.315V198.298H450.435V191.306C450.428 190.544 450.252 189.981 449.907 189.616C449.569 189.252 449.038 189.069 448.315 189.069C447.729 189.069 447.215 189.226 446.772 189.538C446.33 189.851 445.985 190.261 445.737 190.769V198.298H443.931V183.298H445.737V189.011ZM461.47 198.298C461.366 198.09 461.281 197.718 461.216 197.185C460.376 198.057 459.373 198.493 458.208 198.493C457.166 198.493 456.31 198.2 455.64 197.614C454.976 197.022 454.644 196.273 454.644 195.368C454.644 194.268 455.06 193.415 455.894 192.81C456.733 192.198 457.912 191.892 459.429 191.892H461.187V191.062C461.187 190.43 460.998 189.929 460.62 189.558C460.243 189.18 459.686 188.991 458.95 188.991C458.306 188.991 457.765 189.154 457.329 189.479C456.893 189.805 456.675 190.199 456.675 190.661H454.858C454.858 190.134 455.044 189.626 455.415 189.138C455.793 188.643 456.3 188.252 456.938 187.966C457.583 187.679 458.289 187.536 459.058 187.536C460.275 187.536 461.229 187.842 461.919 188.454C462.609 189.06 462.967 189.896 462.993 190.964V195.827C462.993 196.797 463.117 197.569 463.364 198.142V198.298H461.47ZM458.472 196.921C459.038 196.921 459.575 196.774 460.083 196.481C460.591 196.188 460.959 195.808 461.187 195.339V193.171H459.771C457.557 193.171 456.45 193.819 456.45 195.114C456.45 195.681 456.639 196.123 457.017 196.442C457.394 196.761 457.879 196.921 458.472 196.921ZM470.933 189.353C470.659 189.307 470.363 189.284 470.044 189.284C468.859 189.284 468.055 189.789 467.632 190.798V198.298H465.825V187.731H467.583L467.612 188.952C468.205 188.008 469.045 187.536 470.132 187.536C470.483 187.536 470.75 187.582 470.933 187.673V189.353Z" fill="white"/>
<path d="M441.626 193.132C441.626 194.74 441.258 196.035 440.522 197.019C439.787 198.002 438.791 198.493 437.534 198.493C436.252 198.493 435.243 198.086 434.507 197.272V202.36H432.7V187.731H434.351L434.438 188.903C435.174 187.992 436.196 187.536 437.505 187.536C438.774 187.536 439.777 188.015 440.513 188.972C441.255 189.929 441.626 191.26 441.626 192.966V193.132ZM439.819 192.927C439.819 191.735 439.565 190.795 439.058 190.104C438.55 189.414 437.853 189.069 436.968 189.069C435.874 189.069 435.054 189.554 434.507 190.524V195.573C435.047 196.537 435.874 197.019 436.987 197.019C437.853 197.019 438.54 196.677 439.048 195.993C439.562 195.303 439.819 194.281 439.819 192.927ZM445.737 189.011C446.538 188.028 447.58 187.536 448.862 187.536C451.095 187.536 452.222 188.796 452.241 191.315V198.298H450.435V191.306C450.428 190.544 450.252 189.981 449.907 189.616C449.569 189.252 449.038 189.069 448.315 189.069C447.729 189.069 447.215 189.226 446.772 189.538C446.33 189.851 445.985 190.261 445.737 190.769V198.298H443.931V183.298H445.737V189.011ZM461.47 198.298C461.366 198.09 461.281 197.718 461.216 197.185C460.376 198.057 459.373 198.493 458.208 198.493C457.166 198.493 456.31 198.2 455.64 197.614C454.976 197.022 454.644 196.273 454.644 195.368C454.644 194.268 455.06 193.415 455.894 192.81C456.733 192.198 457.912 191.892 459.429 191.892H461.187V191.062C461.187 190.43 460.998 189.929 460.62 189.558C460.243 189.18 459.686 188.991 458.95 188.991C458.306 188.991 457.765 189.154 457.329 189.479C456.893 189.805 456.675 190.199 456.675 190.661H454.858C454.858 190.134 455.044 189.626 455.415 189.138C455.793 188.643 456.3 188.252 456.938 187.966C457.583 187.679 458.289 187.536 459.058 187.536C460.275 187.536 461.229 187.842 461.919 188.454C462.609 189.06 462.967 189.896 462.993 190.964V195.827C462.993 196.797 463.117 197.569 463.364 198.142V198.298H461.47ZM458.472 196.921C459.038 196.921 459.575 196.774 460.083 196.481C460.591 196.188 460.959 195.808 461.187 195.339V193.171H459.771C457.557 193.171 456.45 193.819 456.45 195.114C456.45 195.681 456.639 196.123 457.017 196.442C457.394 196.761 457.879 196.921 458.472 196.921ZM470.933 189.353C470.659 189.307 470.363 189.284 470.044 189.284C468.859 189.284 468.055 189.789 467.632 190.798V198.298H465.825V187.731H467.583L467.612 188.952C468.205 188.008 469.045 187.536 470.132 187.536C470.483 187.536 470.75 187.582 470.933 187.673V189.353Z" fill="white"/>
<path d="M67.1164 89.9531C60.2829 89.9531 53.6028 87.9267 47.9209 84.1302C42.2391 80.3337 37.8106 74.9375 35.1955 68.6242C32.5804 62.3108 31.8962 55.3638 33.2293 48.6615C34.5625 41.9593 37.8532 35.8029 42.6852 30.9708C47.5172 26.1388 53.6736 22.8481 60.3759 21.515C67.0781 20.1818 74.0252 20.866 80.3385 23.4811C86.6519 26.0962 92.048 30.5247 95.8446 36.2066C99.6411 41.8885 101.667 48.5685 101.667 55.4021C101.657 64.5624 98.0136 73.3446 91.5363 79.8219C85.059 86.2993 76.2768 89.9428 67.1164 89.9531Z" fill="white"/>
<path d="M67.1174 21.8521C73.7532 21.8521 80.24 23.8198 85.7575 27.5065C91.2749 31.1932 95.5752 36.4332 98.1146 42.5639C100.654 48.6946 101.318 55.4406 100.024 61.9489C98.729 68.4572 95.5335 74.4354 90.8412 79.1275C86.1489 83.8197 80.1706 87.015 73.6623 88.3095C67.154 89.604 60.4079 88.9394 54.2773 86.3998C48.1467 83.8603 42.9068 79.5598 39.2203 74.0423C35.5338 68.5247 33.5662 62.0379 33.5664 55.4021C33.5767 46.507 37.1149 37.9793 43.4047 31.6897C49.6946 25.4 58.2224 21.8621 67.1174 21.8521ZM67.1174 19.8521C60.0861 19.8521 53.2127 21.9371 47.3663 25.8435C41.52 29.7499 36.9634 35.3022 34.2726 41.7983C31.5818 48.2944 30.8778 55.4425 32.2495 62.3387C33.6213 69.2349 37.0072 75.5695 41.9791 80.5414C46.951 85.5133 53.2855 88.8992 60.1818 90.271C67.078 91.6427 74.2261 90.9387 80.7222 88.2479C87.2183 85.5571 92.7706 81.0005 96.677 75.1541C100.583 69.3078 102.668 62.4344 102.668 55.4031C102.668 45.9743 98.9229 36.9318 92.2558 30.2647C85.5887 23.5976 76.5461 19.8521 67.1174 19.8521Z" fill="#298EEA"/>
<path d="M67.118 98.6467C91.0016 98.6467 110.363 79.2853 110.363 55.4017C110.363 31.5182 91.0016 12.1567 67.118 12.1567C43.2345 12.1567 23.873 31.5182 23.873 55.4017C23.873 79.2853 43.2345 98.6467 67.118 98.6467Z" stroke="#DBF0FF" stroke-miterlimit="10"/>
<path d="M62.7861 58.4282C62.7861 58.1353 62.6748 57.9087 62.4521 57.7485C62.2334 57.5845 61.8486 57.4438 61.2979 57.3267C60.751 57.2095 60.3154 57.0688 59.9912 56.9048C59.6709 56.7407 59.4326 56.5454 59.2764 56.3188C59.124 56.0923 59.0479 55.8228 59.0479 55.5103C59.0479 54.9907 59.2666 54.5513 59.7041 54.1919C60.1455 53.8325 60.708 53.6528 61.3916 53.6528C62.1104 53.6528 62.6924 53.8384 63.1377 54.2095C63.5869 54.5806 63.8115 55.0552 63.8115 55.6333H62.7217C62.7217 55.3364 62.5947 55.0806 62.3408 54.8657C62.0908 54.6509 61.7744 54.5435 61.3916 54.5435C60.9971 54.5435 60.6885 54.6294 60.4658 54.8013C60.2432 54.9731 60.1318 55.1978 60.1318 55.4751C60.1318 55.7368 60.2354 55.9341 60.4424 56.0669C60.6494 56.1997 61.0225 56.3267 61.5615 56.4478C62.1045 56.5688 62.5439 56.7134 62.8799 56.8813C63.2158 57.0493 63.4639 57.2524 63.624 57.4907C63.7881 57.7251 63.8701 58.0122 63.8701 58.3521C63.8701 58.9185 63.6436 59.3735 63.1904 59.7173C62.7373 60.0571 62.1494 60.2271 61.4268 60.2271C60.9189 60.2271 60.4697 60.1372 60.0791 59.9575C59.6885 59.7778 59.3818 59.5278 59.1592 59.2075C58.9404 58.8833 58.8311 58.5337 58.8311 58.1587H59.915C59.9346 58.522 60.0791 58.811 60.3486 59.0259C60.6221 59.2368 60.9814 59.3423 61.4268 59.3423C61.8369 59.3423 62.165 59.2603 62.4111 59.0962C62.6611 58.9282 62.7861 58.7056 62.7861 58.4282ZM66.7529 52.2349V53.77H67.9365V54.6079H66.7529V58.5396C66.7529 58.7935 66.8057 58.9849 66.9111 59.1138C67.0166 59.2388 67.1963 59.3013 67.4502 59.3013C67.5752 59.3013 67.7471 59.2778 67.9658 59.231V60.1099C67.6807 60.188 67.4033 60.2271 67.1338 60.2271C66.6494 60.2271 66.2842 60.0806 66.0381 59.7876C65.792 59.4946 65.6689 59.0786 65.6689 58.5396V54.6079H64.5146V53.77H65.6689V52.2349H66.7529ZM72.2725 54.7427C72.1084 54.7153 71.9307 54.7017 71.7393 54.7017C71.0283 54.7017 70.5459 55.0044 70.292 55.6099V60.1099H69.208V53.77H70.2627L70.2803 54.5024C70.6357 53.936 71.1396 53.6528 71.792 53.6528C72.0029 53.6528 72.1631 53.6802 72.2725 53.7349V54.7427ZM74.4521 60.1099H73.3682V53.77H74.4521V60.1099ZM73.2803 52.0884C73.2803 51.9126 73.333 51.7642 73.4385 51.6431C73.5479 51.522 73.708 51.4614 73.9189 51.4614C74.1299 51.4614 74.29 51.522 74.3994 51.6431C74.5088 51.7642 74.5635 51.9126 74.5635 52.0884C74.5635 52.2642 74.5088 52.4106 74.3994 52.5278C74.29 52.645 74.1299 52.7036 73.9189 52.7036C73.708 52.7036 73.5479 52.645 73.4385 52.5278C73.333 52.4106 73.2803 52.2642 73.2803 52.0884ZM77.2178 53.77L77.2529 54.5669C77.7373 53.9575 78.3701 53.6528 79.1514 53.6528C80.4912 53.6528 81.167 54.4087 81.1787 55.9204V60.1099H80.0947V55.9146C80.0908 55.4575 79.9854 55.1196 79.7783 54.9009C79.5752 54.6821 79.2568 54.5728 78.8232 54.5728C78.4717 54.5728 78.1631 54.6665 77.8975 54.854C77.6318 55.0415 77.4248 55.2876 77.2764 55.5923V60.1099H76.1924V53.77H77.2178ZM82.5557 56.8872C82.5557 55.8989 82.7842 55.1138 83.2412 54.5317C83.6982 53.9458 84.3037 53.6528 85.0576 53.6528C85.8311 53.6528 86.4346 53.9263 86.8682 54.4731L86.9209 53.77H87.9111V59.9575C87.9111 60.7778 87.667 61.4243 87.1787 61.897C86.6943 62.3696 86.042 62.606 85.2217 62.606C84.7646 62.606 84.3174 62.5083 83.8799 62.313C83.4424 62.1177 83.1084 61.8501 82.8779 61.5103L83.4404 60.8599C83.9053 61.4341 84.4736 61.7212 85.1455 61.7212C85.6729 61.7212 86.083 61.5728 86.376 61.2759C86.6729 60.979 86.8213 60.561 86.8213 60.022V59.4771C86.3877 59.9771 85.7959 60.2271 85.0459 60.2271C84.3037 60.2271 83.7021 59.9282 83.2412 59.3306C82.7842 58.7329 82.5557 57.9185 82.5557 56.8872ZM83.6455 57.0103C83.6455 57.7251 83.792 58.2876 84.085 58.6978C84.3779 59.104 84.7881 59.3071 85.3154 59.3071C85.999 59.3071 86.501 58.9966 86.8213 58.3755V55.481C86.4893 54.8755 85.9912 54.5728 85.3271 54.5728C84.7998 54.5728 84.3877 54.7778 84.0908 55.188C83.7939 55.5981 83.6455 56.2056 83.6455 57.0103Z" fill="#80C9FF"/>
<path d="M62.7861 58.4282C62.7861 58.1353 62.6748 57.9087 62.4521 57.7485C62.2334 57.5845 61.8486 57.4438 61.2979 57.3267C60.751 57.2095 60.3154 57.0688 59.9912 56.9048C59.6709 56.7407 59.4326 56.5454 59.2764 56.3188C59.124 56.0923 59.0479 55.8228 59.0479 55.5103C59.0479 54.9907 59.2666 54.5513 59.7041 54.1919C60.1455 53.8325 60.708 53.6528 61.3916 53.6528C62.1104 53.6528 62.6924 53.8384 63.1377 54.2095C63.5869 54.5806 63.8115 55.0552 63.8115 55.6333H62.7217C62.7217 55.3364 62.5947 55.0806 62.3408 54.8657C62.0908 54.6509 61.7744 54.5435 61.3916 54.5435C60.9971 54.5435 60.6885 54.6294 60.4658 54.8013C60.2432 54.9731 60.1318 55.1978 60.1318 55.4751C60.1318 55.7368 60.2354 55.9341 60.4424 56.0669C60.6494 56.1997 61.0225 56.3267 61.5615 56.4478C62.1045 56.5688 62.5439 56.7134 62.8799 56.8813C63.2158 57.0493 63.4639 57.2524 63.624 57.4907C63.7881 57.7251 63.8701 58.0122 63.8701 58.3521C63.8701 58.9185 63.6436 59.3735 63.1904 59.7173C62.7373 60.0571 62.1494 60.2271 61.4268 60.2271C60.9189 60.2271 60.4697 60.1372 60.0791 59.9575C59.6885 59.7778 59.3818 59.5278 59.1592 59.2075C58.9404 58.8833 58.8311 58.5337 58.8311 58.1587H59.915C59.9346 58.522 60.0791 58.811 60.3486 59.0259C60.6221 59.2368 60.9814 59.3423 61.4268 59.3423C61.8369 59.3423 62.165 59.2603 62.4111 59.0962C62.6611 58.9282 62.7861 58.7056 62.7861 58.4282ZM66.7529 52.2349V53.77H67.9365V54.6079H66.7529V58.5396C66.7529 58.7935 66.8057 58.9849 66.9111 59.1138C67.0166 59.2388 67.1963 59.3013 67.4502 59.3013C67.5752 59.3013 67.7471 59.2778 67.9658 59.231V60.1099C67.6807 60.188 67.4033 60.2271 67.1338 60.2271C66.6494 60.2271 66.2842 60.0806 66.0381 59.7876C65.792 59.4946 65.6689 59.0786 65.6689 58.5396V54.6079H64.5146V53.77H65.6689V52.2349H66.7529ZM72.2725 54.7427C72.1084 54.7153 71.9307 54.7017 71.7393 54.7017C71.0283 54.7017 70.5459 55.0044 70.292 55.6099V60.1099H69.208V53.77H70.2627L70.2803 54.5024C70.6357 53.936 71.1396 53.6528 71.792 53.6528C72.0029 53.6528 72.1631 53.6802 72.2725 53.7349V54.7427ZM74.4521 60.1099H73.3682V53.77H74.4521V60.1099ZM73.2803 52.0884C73.2803 51.9126 73.333 51.7642 73.4385 51.6431C73.5479 51.522 73.708 51.4614 73.9189 51.4614C74.1299 51.4614 74.29 51.522 74.3994 51.6431C74.5088 51.7642 74.5635 51.9126 74.5635 52.0884C74.5635 52.2642 74.5088 52.4106 74.3994 52.5278C74.29 52.645 74.1299 52.7036 73.9189 52.7036C73.708 52.7036 73.5479 52.645 73.4385 52.5278C73.333 52.4106 73.2803 52.2642 73.2803 52.0884ZM77.2178 53.77L77.2529 54.5669C77.7373 53.9575 78.3701 53.6528 79.1514 53.6528C80.4912 53.6528 81.167 54.4087 81.1787 55.9204V60.1099H80.0947V55.9146C80.0908 55.4575 79.9854 55.1196 79.7783 54.9009C79.5752 54.6821 79.2568 54.5728 78.8232 54.5728C78.4717 54.5728 78.1631 54.6665 77.8975 54.854C77.6318 55.0415 77.4248 55.2876 77.2764 55.5923V60.1099H76.1924V53.77H77.2178ZM82.5557 56.8872C82.5557 55.8989 82.7842 55.1138 83.2412 54.5317C83.6982 53.9458 84.3037 53.6528 85.0576 53.6528C85.8311 53.6528 86.4346 53.9263 86.8682 54.4731L86.9209 53.77H87.9111V59.9575C87.9111 60.7778 87.667 61.4243 87.1787 61.897C86.6943 62.3696 86.042 62.606 85.2217 62.606C84.7646 62.606 84.3174 62.5083 83.8799 62.313C83.4424 62.1177 83.1084 61.8501 82.8779 61.5103L83.4404 60.8599C83.9053 61.4341 84.4736 61.7212 85.1455 61.7212C85.6729 61.7212 86.083 61.5728 86.376 61.2759C86.6729 60.979 86.8213 60.561 86.8213 60.022V59.4771C86.3877 59.9771 85.7959 60.2271 85.0459 60.2271C84.3037 60.2271 83.7021 59.9282 83.2412 59.3306C82.7842 58.7329 82.5557 57.9185 82.5557 56.8872ZM83.6455 57.0103C83.6455 57.7251 83.792 58.2876 84.085 58.6978C84.3779 59.104 84.7881 59.3071 85.3154 59.3071C85.999 59.3071 86.501 58.9966 86.8213 58.3755V55.481C86.4893 54.8755 85.9912 54.5728 85.3271 54.5728C84.7998 54.5728 84.3877 54.7778 84.0908 55.188C83.7939 55.5981 83.6455 56.2056 83.6455 57.0103Z" fill="#80C9FF"/>
<path d="M89.8825 209.832H51.3145V266.877H97.6725V218.422L89.8825 209.832Z" fill="white" stroke="#298EEA" stroke-width="2" stroke-miterlimit="10" stroke-linecap="round"/>
<path d="M76.082 217.029H56.582V219.696H76.082V217.029Z" fill="#DEF1FF"/>
<path d="M76.082 226.576H56.582V229.243H76.082V226.576Z" fill="#DEF1FF"/>
<path d="M86.728 236.122H56.582V238.789H86.728V236.122Z" fill="#DEF1FF"/>
<path d="M86.728 245.669H56.582V248.336H86.728V245.669Z" fill="#DEF1FF"/>
<path d="M341.309 277.688C340.379 277.928 339.517 278.15 338.655 278.374C333.655 279.674 328.658 280.974 323.664 282.274C320.32 283.138 316.97 283.982 313.622 284.836C312.989 285.006 312.341 285.112 311.687 285.153C310.728 285.245 309.762 285.059 308.905 284.617C308.048 284.175 307.336 283.497 306.854 282.662C306.657 282.335 306.48 281.996 306.325 281.646C302.409 273.186 298.494 264.725 294.581 256.263C289.986 246.31 285.395 236.354 280.807 226.396C280.121 224.908 279.456 223.41 278.784 221.915C278.459 221.222 278.232 220.486 278.111 219.73C278.058 219.388 278.069 219.038 278.144 218.7C278.193 218.448 278.301 218.212 278.46 218.011C278.619 217.809 278.824 217.649 279.057 217.543C279.319 217.417 279.597 217.326 279.883 217.273C280.294 217.201 280.715 217.181 281.131 217.143C281.82 217.08 282.509 217.018 283.197 216.959C283.687 216.916 284.176 216.872 284.666 216.835C285.301 216.787 285.938 216.75 286.573 216.699C287.226 216.646 287.873 216.579 288.53 216.52C289.001 216.478 289.473 216.437 289.945 216.401C290.58 216.353 291.217 216.315 291.852 216.265C292.523 216.212 293.194 216.148 293.865 216.089C294.355 216.046 294.844 216.002 295.334 215.965C295.969 215.917 296.606 215.879 297.241 215.829C297.949 215.773 298.655 215.708 299.363 215.649C299.907 215.603 300.451 215.557 300.996 215.518C301.686 215.469 302.377 215.433 303.067 215.381C303.757 215.329 304.444 215.237 305.135 215.209C306.154 215.167 307.168 215.018 308.19 215.069C308.498 215.084 308.805 215.122 309.111 215.163C309.438 215.204 309.753 215.312 310.036 215.481C310.319 215.649 310.564 215.875 310.754 216.144C311.154 216.685 311.548 217.236 311.895 217.812C313.709 220.823 315.515 223.84 317.311 226.861C323.045 236.442 328.778 246.024 334.511 255.605C337.511 260.622 340.511 265.641 343.511 270.66C343.65 270.893 343.798 271.121 343.922 271.32C343.984 271.341 344.001 271.348 344.022 271.352C344.039 271.359 344.057 271.363 344.075 271.362C357.495 268.152 370.915 264.941 384.333 261.73C384.367 261.718 384.399 261.7 384.426 261.676C384.442 261.66 384.456 261.641 384.467 261.621C384.497 261.445 384.357 261.333 384.267 261.205C383.515 260.13 382.76 259.058 382.002 257.987L371.31 242.856C371.07 242.556 370.882 242.218 370.754 241.856C370.693 241.673 370.689 241.477 370.741 241.291C370.793 241.106 370.899 240.94 371.046 240.816C371.303 240.581 371.616 240.415 371.955 240.334C372.429 240.207 372.908 240.096 373.391 240.012C374.877 239.752 376.366 239.504 377.854 239.258C379.271 239.023 380.69 238.799 382.107 238.558C383.307 238.358 384.507 238.141 385.707 237.942C386.927 237.742 388.149 237.551 389.369 237.353C390.356 237.193 391.343 237.032 392.329 236.865C392.963 236.744 393.619 236.864 394.167 237.203C394.539 237.431 394.885 237.7 395.198 238.003C395.612 238.414 396.001 238.848 396.364 239.303C399.868 243.641 403.368 247.982 406.864 252.325C408.364 254.183 409.874 256.031 411.375 257.886C411.515 258.054 411.634 258.237 411.731 258.432C411.787 258.522 411.824 258.622 411.84 258.727C411.856 258.831 411.851 258.938 411.826 259.04C411.8 259.143 411.754 259.239 411.69 259.324C411.627 259.408 411.547 259.479 411.455 259.532C411.2 259.705 410.921 259.84 410.627 259.932C410.091 260.105 409.543 260.238 408.998 260.383C403.535 261.84 398.072 263.298 392.608 264.755C392.47 264.792 392.337 264.849 392.196 264.9C392.234 265.104 392.335 265.29 392.486 265.431C393.355 266.601 394.232 267.765 395.101 268.931C399.395 274.707 403.687 280.484 407.977 286.261C408.248 286.627 408.52 286.993 408.763 287.378C408.913 287.627 409.038 287.89 409.136 288.163C409.212 288.352 409.225 288.56 409.172 288.756C409.119 288.953 409.004 289.127 408.844 289.252C408.642 289.435 408.415 289.589 408.17 289.709C407.698 289.944 407.214 290.155 406.72 290.341C402.535 291.872 398.352 293.41 394.157 294.913C384.824 298.257 375.488 301.59 366.149 304.913C364.685 305.464 363.193 305.936 361.678 306.328C361.202 306.45 360.718 306.537 360.23 306.589C359.609 306.645 358.985 306.512 358.44 306.208C358.089 306.013 357.768 305.77 357.484 305.486C356.952 304.96 356.487 304.37 356.101 303.729C355.325 302.453 354.54 301.182 353.801 299.884C351.245 295.387 348.701 290.884 346.167 286.375C344.632 283.644 343.125 280.898 341.605 278.159C341.522 278.025 341.423 277.875 341.309 277.688ZM338.299 272.281C338.28 272.179 338.251 272.078 338.214 271.981C338.127 271.781 338.028 271.586 337.919 271.397C334.827 266.054 331.734 260.711 328.638 255.369L316.728 234.803C313.728 229.618 310.728 224.432 307.728 219.245C307.651 219.071 307.519 218.926 307.352 218.834C307.185 218.742 306.992 218.708 306.803 218.736C306.223 218.791 305.642 218.828 305.061 218.876C304.608 218.914 304.155 218.956 303.701 218.998C303.085 219.055 302.469 219.116 301.853 219.169C301.253 219.221 300.653 219.262 300.053 219.312C299.6 219.35 299.147 219.395 298.694 219.437C298.094 219.493 297.494 219.553 296.901 219.605C296.308 219.657 295.701 219.699 295.101 219.748C294.666 219.784 294.231 219.822 293.796 219.863C293.216 219.919 292.638 219.985 292.058 220.036C291.458 220.088 290.858 220.124 290.258 220.173C289.75 220.215 289.243 220.265 288.735 220.312C288.119 220.369 287.503 220.43 286.887 220.481C286.271 220.532 285.653 220.573 285.036 220.623C284.891 220.636 284.747 220.659 284.604 220.689C284.389 220.733 284.274 220.847 284.291 221.064C284.308 221.281 284.355 221.494 284.432 221.697C284.543 221.985 284.691 222.258 284.826 222.537C290.884 235.018 296.942 247.5 303 259.981C305.884 265.928 308.758 271.88 311.622 277.836C311.733 278.065 311.83 278.301 311.939 278.536C311.98 278.669 312.07 278.781 312.191 278.849C312.312 278.917 312.455 278.935 312.589 278.9C312.661 278.889 312.733 278.874 312.803 278.855C313.636 278.665 314.47 278.48 315.303 278.283C319.053 277.394 322.803 276.503 326.551 275.61C330.177 274.747 333.801 273.882 337.425 273.015C337.603 272.978 337.778 272.926 337.947 272.86C338.063 272.817 338.16 272.737 338.224 272.631C338.288 272.526 338.315 272.402 338.299 272.28V272.281ZM346.879 276.272C346.917 276.46 346.995 276.637 347.109 276.791C350.569 282.74 354.029 288.689 357.49 294.638C358.187 295.834 358.896 297.023 359.616 298.204C359.855 298.591 360.129 298.955 360.433 299.293C360.615 299.525 360.871 299.688 361.159 299.754C361.446 299.821 361.748 299.787 362.013 299.658C362.482 299.463 362.968 299.307 363.45 299.143L397.9 287.45C398.967 287.088 400.034 286.724 401.1 286.358C401.306 286.291 401.507 286.207 401.7 286.108C401.789 286.082 401.871 286.035 401.937 285.969C402.003 285.904 402.051 285.823 402.078 285.734C402.105 285.645 402.109 285.551 402.09 285.46C402.071 285.369 402.029 285.285 401.969 285.214C401.916 285.119 401.859 285.026 401.796 284.936C401.662 284.736 401.528 284.546 401.388 284.355C399.316 281.516 397.244 278.677 395.171 275.838C392.857 272.657 390.547 269.473 388.241 266.286C388.168 266.18 388.087 266.08 387.999 265.986C387.9 265.866 387.768 265.777 387.619 265.731C387.47 265.684 387.311 265.681 387.161 265.723C386.846 265.809 386.531 265.897 386.215 265.979C384.422 266.449 382.629 266.918 380.835 267.387C376.139 268.608 371.443 269.829 366.745 271.048C362.489 272.156 358.233 273.266 353.977 274.377C351.726 274.964 349.475 275.549 347.223 276.133C347.106 276.172 346.991 276.218 346.879 276.271V276.272ZM388.829 260.657C388.95 260.639 389.022 260.634 389.091 260.617C390.731 260.211 392.37 259.8 394.01 259.397C397.062 258.646 400.115 257.897 403.168 257.15C403.662 257.029 404.158 256.914 404.647 256.775C404.875 256.712 405.093 256.619 405.295 256.498C405.36 256.472 405.417 256.43 405.461 256.376C405.506 256.322 405.536 256.259 405.551 256.19C405.565 256.122 405.562 256.051 405.543 255.984C405.523 255.917 405.488 255.856 405.439 255.806C405.349 255.67 405.239 255.545 405.139 255.416C401.907 251.309 398.674 247.202 395.439 243.095C394.921 242.437 394.41 241.773 393.898 241.11C393.725 240.862 393.481 240.671 393.198 240.564C392.914 240.457 392.605 240.438 392.311 240.51C390.919 240.777 389.525 241.033 388.132 241.29C386.22 241.643 384.309 241.998 382.395 242.341C380.839 242.62 379.28 242.882 377.722 243.151C377.522 243.185 377.322 243.212 377.132 243.251C376.618 243.362 376.494 243.621 376.748 244.074C376.859 244.262 376.981 244.444 377.113 244.618C380.903 249.813 384.692 255.005 388.478 260.196C388.588 260.346 388.698 260.487 388.829 260.656V260.657Z" fill="#298EEA"/>
</g>
<defs>
<clipPath id="clip0">
<rect width="507" height="347.196" fill="white"/>
</clipPath>
</defs>
</svg>
