<svg width="64" height="64" viewBox="0 0 64 64" fill="none" xmlns="http://www.w3.org/2000/svg">
<path d="M51.25 41.1299V51.1299C51.25 52.9209 42.799 54.3719 32.375 54.3719C21.951 54.3719 13.5 52.9209 13.5 51.1299V41.1739" fill="white"/>
<path d="M51.25 41.1299V51.1299C51.25 52.9209 42.799 54.3719 32.375 54.3719C21.951 54.3719 13.5 52.9209 13.5 51.1299V41.1739" stroke="#298EEA" stroke-width="2" stroke-miterlimit="10"/>
<path d="M51.25 31.5V41.5C51.25 43.291 42.799 44.742 32.375 44.742C21.951 44.742 13.5 43.291 13.5 41.5V31.544" fill="white"/>
<path d="M51.25 31.5V41.5C51.25 43.291 42.799 44.742 32.375 44.742C21.951 44.742 13.5 43.291 13.5 41.5V31.544" stroke="#298EEA" stroke-width="2" stroke-miterlimit="10"/>
<path d="M51.25 21.4521V31.4521C51.25 33.2431 42.799 34.6941 32.375 34.6941C21.951 34.6941 13.5 33.2431 13.5 31.4521V21.5001" fill="white"/>
<path d="M51.25 21.4521V31.4521C51.25 33.2431 42.799 34.6941 32.375 34.6941C21.951 34.6941 13.5 33.2431 13.5 31.4521V21.5001" stroke="#298EEA" stroke-width="2" stroke-miterlimit="10"/>
<path d="M51.25 11.4502V21.4502C51.25 23.2412 42.799 24.6922 32.375 24.6922C21.951 24.6922 13.5 23.2412 13.5 21.4502V11.4942" fill="white"/>
<path d="M51.25 11.4502V21.4502C51.25 23.2412 42.799 24.6922 32.375 24.6922C21.951 24.6922 13.5 23.2412 13.5 21.4502V11.4942" stroke="#298EEA" stroke-width="2" stroke-miterlimit="10"/>
<path d="M32.375 14.692C42.7994 14.692 51.25 13.2405 51.25 11.45C51.25 9.6595 42.7994 8.20801 32.375 8.20801C21.9506 8.20801 13.5 9.6595 13.5 11.45C13.5 13.2405 21.9506 14.692 32.375 14.692Z" fill="white" stroke="#298EEA" stroke-width="2" stroke-miterlimit="10"/>
<path d="M51.25 16.8691C51.25 18.6601 42.799 20.1111 32.375 20.1111" stroke="#298EEA" stroke-width="2" stroke-miterlimit="10" stroke-linecap="round"/>
<path d="M17.2192 19.5098C17.7715 19.5098 18.2192 19.0621 18.2192 18.5098C18.2192 17.9575 17.7715 17.5098 17.2192 17.5098C16.667 17.5098 16.2192 17.9575 16.2192 18.5098C16.2192 19.0621 16.667 19.5098 17.2192 19.5098Z" fill="#C9C9C9"/>
<path d="M51.25 26.4521C51.25 28.2431 42.799 29.6941 32.375 29.6941" stroke="#298EEA" stroke-width="2" stroke-miterlimit="10" stroke-linecap="round"/>
<path d="M17.2192 29.0942C17.7715 29.0942 18.2192 28.6465 18.2192 28.0942C18.2192 27.542 17.7715 27.0942 17.2192 27.0942C16.667 27.0942 16.2192 27.542 16.2192 28.0942C16.2192 28.6465 16.667 29.0942 17.2192 29.0942Z" fill="#C9C9C9"/>
<path d="M51.25 36.0352C51.25 37.8262 42.799 39.2772 32.375 39.2772" stroke="#298EEA" stroke-width="2" stroke-miterlimit="10" stroke-linecap="round"/>
<path d="M17.2192 38.6772C17.7715 38.6772 18.2192 38.2295 18.2192 37.6772C18.2192 37.125 17.7715 36.6772 17.2192 36.6772C16.667 36.6772 16.2192 37.125 16.2192 37.6772C16.2192 38.2295 16.667 38.6772 17.2192 38.6772Z" fill="#C9C9C9"/>
<path d="M51.25 45.6191C51.25 47.4101 42.799 48.8611 32.375 48.8611" stroke="#298EEA" stroke-width="2" stroke-miterlimit="10" stroke-linecap="round"/>
<path d="M17.2192 48.2598C17.7715 48.2598 18.2192 47.8121 18.2192 47.2598C18.2192 46.7075 17.7715 46.2598 17.2192 46.2598C16.667 46.2598 16.2192 46.7075 16.2192 47.2598C16.2192 47.8121 16.667 48.2598 17.2192 48.2598Z" fill="#C9C9C9"/>
</svg>
