<svg width="64" height="64" viewBox="0 0 64 64" fill="none" xmlns="http://www.w3.org/2000/svg">
<path d="M50.875 39.8398V49.8398C50.875 51.6308 42.424 53.0818 32 53.0818C21.576 53.0818 13.125 51.6308 13.125 49.8398V39.8838" fill="white"/>
<path d="M50.875 39.8398V49.8398C50.875 51.6308 42.424 53.0818 32 53.0818C21.576 53.0818 13.125 51.6308 13.125 49.8398V39.8838" stroke="#298EEA" stroke-width="2" stroke-miterlimit="10"/>
<path d="M50.875 30.21V40.21C50.875 42.001 42.424 43.452 32 43.452C21.576 43.452 13.125 42 13.125 40.21V30.254" fill="white"/>
<path d="M50.875 30.21V40.21C50.875 42.001 42.424 43.452 32 43.452C21.576 43.452 13.125 42 13.125 40.21V30.254" stroke="#298EEA" stroke-width="2" stroke-miterlimit="10"/>
<path d="M50.875 20.1621V30.1621C50.875 31.9531 42.424 33.4041 32 33.4041C21.576 33.4041 13.125 31.9521 13.125 30.1621V20.2061" fill="white"/>
<path d="M50.875 20.1621V30.1621C50.875 31.9531 42.424 33.4041 32 33.4041C21.576 33.4041 13.125 31.9521 13.125 30.1621V20.2061" stroke="#298EEA" stroke-width="2" stroke-miterlimit="10"/>
<path d="M50.875 10.1602V20.1602C50.875 21.9502 42.424 23.4002 32 23.4002C21.576 23.4002 13.125 21.9502 13.125 20.1602V10.2002" fill="white"/>
<path d="M50.875 10.1602V20.1602C50.875 21.9502 42.424 23.4002 32 23.4002C21.576 23.4002 13.125 21.9502 13.125 20.1602V10.2002" stroke="#298EEA" stroke-width="2" stroke-miterlimit="10"/>
<path d="M32 13.402C42.4244 13.402 50.875 11.9505 50.875 10.16C50.875 8.36946 42.4244 6.91797 32 6.91797C21.5756 6.91797 13.125 8.36946 13.125 10.16C13.125 11.9505 21.5756 13.402 32 13.402Z" fill="white" stroke="#298EEA" stroke-width="2" stroke-miterlimit="10"/>
<path d="M32.0002 58.9677C29.2376 58.9677 26.5371 58.1485 24.24 56.6137C21.943 55.0789 20.1527 52.8974 19.0955 50.3451C18.0383 47.7927 17.7617 44.9843 18.3006 42.2747C18.8396 39.5652 20.1699 37.0763 22.1234 35.1229C24.0768 33.1694 26.5657 31.8391 29.2752 31.3001C31.9847 30.7612 34.7932 31.0378 37.3456 32.095C39.8979 33.1522 42.0794 34.9425 43.6142 37.2395C45.149 39.5366 45.9682 42.2371 45.9682 44.9997C45.9643 48.7031 44.4914 52.2536 41.8727 54.8722C39.2541 57.4909 35.7036 58.9638 32.0002 58.9677Z" fill="#D4E8FB"/>
<path d="M32.0002 32.0317C34.5651 32.0317 37.0723 32.7923 39.2049 34.2172C41.3374 35.6422 42.9996 37.6675 43.9811 40.0371C44.9626 42.4067 45.2194 45.0141 44.7191 47.5297C44.2187 50.0452 42.9836 52.3559 41.17 54.1695C39.3564 55.9831 37.0457 57.2182 34.5302 57.7186C32.0146 58.2189 29.4072 57.9621 27.0376 56.9806C24.668 55.9991 22.6427 54.337 21.2177 52.2044C19.7928 50.0718 19.0322 47.5646 19.0322 44.9997C19.0362 41.5616 20.4037 38.2655 22.8349 35.8344C25.266 33.4033 28.5621 32.0357 32.0002 32.0317ZM32.0002 30.0317C29.0398 30.0317 26.1459 30.9096 23.6845 32.5543C21.223 34.199 19.3045 36.5367 18.1716 39.2717C17.0387 42.0068 16.7423 45.0163 17.3198 47.9199C17.8974 50.8234 19.3229 53.4904 21.4163 55.5837C23.5096 57.677 26.1766 59.1026 29.0801 59.6801C31.9836 60.2577 34.9932 59.9613 37.7282 58.8284C40.4633 57.6955 42.801 55.777 44.4457 53.3155C46.0904 50.854 46.9682 47.9601 46.9682 44.9997C46.9682 41.03 45.3913 37.2228 42.5842 34.4158C39.7772 31.6087 35.97 30.0317 32.0002 30.0317Z" fill="#298EEA"/>
<path d="M32 35.125C34.619 35.125 37.1308 36.1654 38.9827 38.0173C40.8346 39.8692 41.875 42.381 41.875 45" stroke="#298EEA" stroke-width="2" stroke-miterlimit="10" stroke-linecap="round"/>
<path d="M32 39.8398C33.3685 39.8398 34.681 40.3835 35.6487 41.3512C36.6164 42.3189 37.16 43.6313 37.16 44.9998" stroke="#298EEA" stroke-width="2" stroke-miterlimit="10" stroke-linecap="round"/>
<path d="M31 45V46.542C31 47.7243 31.4697 48.8582 32.3057 49.6943C33.1418 50.5303 34.2757 51 35.458 51H36V58" stroke="#298EEA" stroke-width="2" stroke-miterlimit="10" stroke-linecap="round"/>
<path d="M30.9999 46.9719C32.1133 46.9719 33.0159 46.0694 33.0159 44.9559C33.0159 43.8425 32.1133 42.9399 30.9999 42.9399C29.8865 42.9399 28.9839 43.8425 28.9839 44.9559C28.9839 46.0694 29.8865 46.9719 30.9999 46.9719Z" fill="#298EEA"/>
</svg>
